<mxfile host="Electron" agent="Mozilla/5.0 (Windows NT 10.0; Win64; x64) AppleWebKit/537.36 (KHTML, like Gecko) draw.io/24.7.5 Chrome/126.0.6478.183 Electron/31.3.0 Safari/537.36" version="24.7.5">
  <diagram id="_XZd568jcBz7-2pH2_8F" name="Page-2">
    <mxGraphModel dx="1050" dy="638" grid="1" gridSize="10" guides="1" tooltips="1" connect="1" arrows="1" fold="1" page="1" pageScale="1" pageWidth="827" pageHeight="1169" math="1" shadow="0">
      <root>
        <mxCell id="0" />
        <mxCell id="1" parent="0" />
        <mxCell id="TdMQFVT1TNhZnt9DcQD6-1" value="Speech (Essay) Midterm" style="shape=hexagon;perimeter=hexagonPerimeter2;whiteSpace=wrap;fixedSize=1;size=16;fillColor=#dae8fc;strokeColor=#000000;fontFamily=ADLaM Display;fontSize=20;strokeWidth=2;align=center;spacingLeft=0;spacingBottom=5;fillStyle=hachure;fontStyle=1;rounded=1;arcSize=14;fontSource=https%3A%2F%2Ffonts.googleapis.com%2Fcss%3Ffamily%3DADLaM%2BDisplay;" vertex="1" parent="1">
          <mxGeometry x="264" y="30" width="299.32" height="57.14" as="geometry" />
        </mxCell>
        <mxCell id="TdMQFVT1TNhZnt9DcQD6-2" value="" style="group;fontFamily=Mina;fontSource=https%3A%2F%2Ffonts.googleapis.com%2Fcss%3Ffamily%3DMina;" vertex="1" connectable="0" parent="1">
          <mxGeometry x="40" y="200" width="780" height="80" as="geometry" />
        </mxCell>
        <mxCell id="TdMQFVT1TNhZnt9DcQD6-3" value="&lt;font style=&quot;font-size: 14px;&quot;&gt;&lt;font style=&quot;font-size: 14px;&quot; color=&quot;#ff3333&quot;&gt;F&lt;sub style=&quot;font-size: 14px;&quot;&gt;s &lt;/sub&gt;`\le` 2F&lt;sub style=&quot;font-size: 14px;&quot;&gt;m&lt;/sub&gt;&lt;/font&gt;&amp;nbsp;, Where F&lt;sub style=&quot;font-size: 14px;&quot;&gt;s&lt;/sub&gt; is the sampling rate&amp;nbsp;&lt;b style=&quot;font-size: 14px;&quot;&gt;frequency and F&lt;sub style=&quot;font-size: 14px;&quot;&gt;m&lt;/sub&gt; is the&amp;nbsp;&lt;/b&gt;&lt;b style=&quot;font-size: 14px;&quot;&gt;max frequency of the signal to be sampled.&lt;/b&gt;&lt;/font&gt;" style="rounded=1;whiteSpace=wrap;html=1;hachureGap=4;fontFamily=Mina;strokeWidth=2;fillColor=#cdeb8b;strokeColor=#000000;fontSize=14;fontStyle=1;labelBorderColor=none;textShadow=0;labelBackgroundColor=none;align=left;spacing=7;verticalAlign=middle;fontSource=https%3A%2F%2Ffonts.googleapis.com%2Fcss%3Ffamily%3DMina;" vertex="1" parent="TdMQFVT1TNhZnt9DcQD6-2">
          <mxGeometry y="40" width="770" height="40" as="geometry" />
        </mxCell>
        <mxCell id="TdMQFVT1TNhZnt9DcQD6-4" value="|" style="rounded=1;whiteSpace=wrap;html=1;hachureGap=4;fontFamily=Mina;strokeWidth=2;fillColor=#008a00;strokeColor=#000000;fontSize=22;fontStyle=1;labelBorderColor=none;textShadow=0;labelBackgroundColor=none;align=center;spacing=5;verticalAlign=middle;spacingTop=0;spacingRight=2;fontColor=#ffffff;container=0;fontSource=https%3A%2F%2Ffonts.googleapis.com%2Fcss%3Ffamily%3DMina;" vertex="1" parent="TdMQFVT1TNhZnt9DcQD6-2">
          <mxGeometry x="20" width="40" height="40" as="geometry" />
        </mxCell>
        <mxCell id="TdMQFVT1TNhZnt9DcQD6-5" value="&lt;b&gt;Explain sampling theory&lt;/b&gt;" style="rounded=1;whiteSpace=wrap;html=1;hachureGap=4;fontFamily=Mina;strokeWidth=2;fillColor=#008a00;strokeColor=#000000;fontSize=22;fontStyle=1;labelBorderColor=none;textShadow=0;labelBackgroundColor=none;align=center;spacing=5;verticalAlign=middle;spacingTop=0;spacingRight=2;fontColor=#ffffff;container=0;fontSource=https%3A%2F%2Ffonts.googleapis.com%2Fcss%3Ffamily%3DMina;" vertex="1" parent="TdMQFVT1TNhZnt9DcQD6-2">
          <mxGeometry x="60" width="280" height="40" as="geometry" />
        </mxCell>
        <mxCell id="TdMQFVT1TNhZnt9DcQD6-6" value="" style="group;fontFamily=Mina;fontSource=https%3A%2F%2Ffonts.googleapis.com%2Fcss%3Ffamily%3DMina;" vertex="1" connectable="0" parent="1">
          <mxGeometry x="40" y="315" width="650" height="80" as="geometry" />
        </mxCell>
        <mxCell id="TdMQFVT1TNhZnt9DcQD6-7" value="&lt;b&gt;Automatic Speech Recognition, An ASR system converts the &lt;font color=&quot;#ff3333&quot;&gt;speech signal &lt;/font&gt;into &lt;font color=&quot;#ff3333&quot;&gt;words&lt;/font&gt;.&lt;/b&gt;" style="rounded=1;whiteSpace=wrap;html=1;hachureGap=4;fontFamily=Mina;strokeWidth=2;fillColor=#e1d5e7;strokeColor=#000000;fontSize=16;fontStyle=1;labelBorderColor=none;textShadow=0;labelBackgroundColor=none;align=left;spacing=7;verticalAlign=middle;fontSource=https%3A%2F%2Ffonts.googleapis.com%2Fcss%3Ffamily%3DMina;" vertex="1" parent="TdMQFVT1TNhZnt9DcQD6-6">
          <mxGeometry y="40" width="650" height="40" as="geometry" />
        </mxCell>
        <mxCell id="TdMQFVT1TNhZnt9DcQD6-8" value="2" style="rounded=1;whiteSpace=wrap;html=1;hachureGap=4;fontFamily=Mina;strokeWidth=2;fillColor=#76608a;strokeColor=#000000;fontSize=22;fontStyle=1;labelBorderColor=none;textShadow=0;labelBackgroundColor=none;align=center;spacing=5;verticalAlign=middle;spacingTop=0;spacingRight=2;fontColor=#ffffff;container=0;fontSource=https%3A%2F%2Ffonts.googleapis.com%2Fcss%3Ffamily%3DMina;" vertex="1" parent="TdMQFVT1TNhZnt9DcQD6-6">
          <mxGeometry x="20" width="40" height="40" as="geometry" />
        </mxCell>
        <mxCell id="TdMQFVT1TNhZnt9DcQD6-9" value="&lt;b&gt;Define what is meant by ASR&lt;/b&gt;" style="rounded=1;whiteSpace=wrap;html=1;hachureGap=4;fontFamily=Mina;strokeWidth=2;fillColor=#76608a;strokeColor=#000000;fontSize=22;fontStyle=1;labelBorderColor=none;textShadow=0;labelBackgroundColor=none;align=center;spacing=5;verticalAlign=middle;spacingTop=0;spacingRight=2;fontColor=#ffffff;container=0;fontSource=https%3A%2F%2Ffonts.googleapis.com%2Fcss%3Ffamily%3DMina;" vertex="1" parent="TdMQFVT1TNhZnt9DcQD6-6">
          <mxGeometry x="60" width="310" height="40" as="geometry" />
        </mxCell>
        <mxCell id="TdMQFVT1TNhZnt9DcQD6-10" value="&lt;b style=&quot;font-size: 15px;&quot;&gt;&lt;font style=&quot;font-size: 15px;&quot; color=&quot;#660000&quot;&gt;2D &lt;/font&gt;signal representation in &lt;font style=&quot;font-size: 15px;&quot; color=&quot;#006666&quot;&gt;frequency &lt;/font&gt;domain (&lt;font style=&quot;font-size: 15px;&quot; color=&quot;#006666&quot;&gt;frequency&lt;/font&gt; vs &lt;font style=&quot;font-size: 15px;&quot; color=&quot;#3333ff&quot;&gt;magnitude &lt;/font&gt;or gain)&lt;/b&gt;" style="rounded=0;whiteSpace=wrap;html=1;strokeWidth=2;fillColor=#b1ddf0;strokeColor=#000000;fontSize=15;align=left;spacingLeft=8;fontFamily=Mina;fontSource=https%3A%2F%2Ffonts.googleapis.com%2Fcss%3Ffamily%3DMina;" vertex="1" parent="1">
          <mxGeometry x="170" y="470" width="610" height="50" as="geometry" />
        </mxCell>
        <mxCell id="TdMQFVT1TNhZnt9DcQD6-11" value="WaveformÂ " style="rounded=0;whiteSpace=wrap;strokeWidth=2;fillColor=#d0cee2;strokeColor=#000000;fontSize=17;fontStyle=1;align=center;fontFamily=Mina;fontSource=https%3A%2F%2Ffonts.googleapis.com%2Fcss%3Ffamily%3DMina;" vertex="1" parent="1">
          <mxGeometry x="40" y="520" width="130" height="60" as="geometry" />
        </mxCell>
        <mxCell id="TdMQFVT1TNhZnt9DcQD6-12" value="&lt;b style=&quot;border-color: var(--border-color); font-size: 15px;&quot;&gt;&lt;font style=&quot;font-size: 15px;&quot; color=&quot;#660000&quot;&gt;2D &lt;/font&gt;signal representation in&amp;nbsp;&lt;b style=&quot;text-indent: -0.25in; background-color: initial; font-size: 15px;&quot;&gt;&lt;font style=&quot;font-size: 15px;&quot; color=&quot;#994c00&quot;&gt;time &lt;/font&gt;domain (&lt;font style=&quot;font-size: 15px;&quot; color=&quot;#994c00&quot;&gt;time &lt;/font&gt;vs&amp;nbsp;&lt;/b&gt;&lt;b style=&quot;text-indent: -0.25in; background-color: initial; font-size: 15px;&quot;&gt;&lt;font style=&quot;font-size: 15px;&quot; color=&quot;#3333ff&quot;&gt;magnitude&lt;/font&gt;)&lt;/b&gt;&lt;b style=&quot;text-indent: -0.25in; background-color: initial; font-size: 15px;&quot;&gt;&lt;br style=&quot;font-size: 15px;&quot;&gt;&lt;/b&gt;&lt;/b&gt;" style="rounded=0;whiteSpace=wrap;html=1;strokeWidth=2;fillColor=#d0cee2;strokeColor=#000000;fontSize=15;align=left;spacingLeft=8;fontFamily=Mina;fontSource=https%3A%2F%2Ffonts.googleapis.com%2Fcss%3Ffamily%3DMina;" vertex="1" parent="1">
          <mxGeometry x="170" y="520" width="610" height="60" as="geometry" />
        </mxCell>
        <mxCell id="TdMQFVT1TNhZnt9DcQD6-13" value="&lt;b style=&quot;font-size: 17px;&quot;&gt;Spectrogram&amp;nbsp;&lt;/b&gt;" style="rounded=0;html=1;strokeWidth=2;fillColor=#fad9d5;strokeColor=#000000;fontSize=17;fontFamily=Mina;fontSource=https%3A%2F%2Ffonts.googleapis.com%2Fcss%3Ffamily%3DMina;" vertex="1" parent="1">
          <mxGeometry x="40" y="580" width="130" height="60" as="geometry" />
        </mxCell>
        <mxCell id="TdMQFVT1TNhZnt9DcQD6-14" value="&lt;p class=&quot;MsoNormal&quot; style=&quot;margin-left: 0.5in; text-indent: -0.25in; direction: ltr; unicode-bidi: embed; font-size: 15px;&quot;&gt;&lt;b style=&quot;font-size: 15px;&quot;&gt;&lt;font style=&quot;font-size: 15px;&quot; color=&quot;#660000&quot;&gt;3D &lt;/font&gt;signal representation in (&lt;font style=&quot;font-size: 15px;&quot; color=&quot;#994c00&quot;&gt;time &lt;/font&gt;vs &lt;font style=&quot;font-size: 15px;&quot; color=&quot;#006666&quot;&gt;frequency &lt;/font&gt;vs &lt;font style=&quot;font-size: 15px;&quot; color=&quot;#3333ff&quot;&gt;magnitude&lt;/font&gt;), spectrograms allow us to &lt;font style=&quot;font-size: 15px;&quot; color=&quot;#ff3333&quot;&gt;visualize audio&lt;/font&gt; and the &lt;font style=&quot;font-size: 15px;&quot; color=&quot;#ff3333&quot;&gt;pressure &lt;/font&gt;these sound waves create, thus allowing us &lt;br&gt;to &lt;font style=&quot;font-size: 15px;&quot; color=&quot;#ff3333&quot;&gt;see the shape&lt;/font&gt; and &lt;font style=&quot;font-size: 15px;&quot; color=&quot;#ff3333&quot;&gt;form &lt;/font&gt;of the recorded sound.&lt;/b&gt;&lt;/p&gt;" style="rounded=0;whiteSpace=wrap;html=1;strokeWidth=2;fillColor=#fad9d5;strokeColor=#000000;align=left;spacingLeft=-16;fontSize=15;fontFamily=Mina;fontSource=https%3A%2F%2Ffonts.googleapis.com%2Fcss%3Ffamily%3DMina;spacingRight=2;" vertex="1" parent="1">
          <mxGeometry x="170" y="580" width="610" height="60" as="geometry" />
        </mxCell>
        <mxCell id="TdMQFVT1TNhZnt9DcQD6-15" value="&lt;b style=&quot;font-size: 17px;&quot;&gt;Spectrum&lt;/b&gt;" style="rounded=0;whiteSpace=wrap;html=1;strokeWidth=2;fillColor=#b1ddf0;strokeColor=#000000;fontSize=17;fontFamily=Mina;fontSource=https%3A%2F%2Ffonts.googleapis.com%2Fcss%3Ffamily%3DMina;" vertex="1" parent="1">
          <mxGeometry x="40" y="470" width="130" height="50" as="geometry" />
        </mxCell>
        <mxCell id="TdMQFVT1TNhZnt9DcQD6-16" value="3" style="rounded=1;whiteSpace=wrap;html=1;hachureGap=4;fontFamily=Mina;strokeWidth=2;fillColor=#999999;strokeColor=#000000;fontSize=22;fontStyle=1;labelBorderColor=none;textShadow=0;labelBackgroundColor=none;align=center;spacing=5;verticalAlign=middle;spacingTop=0;spacingRight=2;fontColor=#ffffff;container=0;fontSource=https%3A%2F%2Ffonts.googleapis.com%2Fcss%3Ffamily%3DMina;" vertex="1" parent="1">
          <mxGeometry x="50" y="430" width="40" height="40" as="geometry" />
        </mxCell>
        <mxCell id="TdMQFVT1TNhZnt9DcQD6-17" value="&lt;b&gt;The domains of speech signal representation? Compare&lt;/b&gt;" style="rounded=1;whiteSpace=wrap;html=1;hachureGap=4;fontFamily=Mina;strokeWidth=2;fillColor=#999999;strokeColor=#000000;fontSize=22;fontStyle=1;labelBorderColor=none;textShadow=0;labelBackgroundColor=none;align=center;spacing=5;verticalAlign=middle;spacingTop=0;spacingRight=2;fontColor=#ffffff;container=0;fontSource=https%3A%2F%2Ffonts.googleapis.com%2Fcss%3Ffamily%3DMina;" vertex="1" parent="1">
          <mxGeometry x="90" y="430" width="580" height="40" as="geometry" />
        </mxCell>
        <mxCell id="TdMQFVT1TNhZnt9DcQD6-18" value="&lt;b style=&quot;font-size: 14px;&quot;&gt;The study of speech sounds and their production, classification and transcription&amp;nbsp;&lt;/b&gt;" style="rounded=0;whiteSpace=wrap;html=1;strokeWidth=2;fillColor=#D5E8D4;strokeColor=#000000;fontSize=14;align=left;spacingLeft=8;fontFamily=Mina;fontSource=https%3A%2F%2Ffonts.googleapis.com%2Fcss%3Ffamily%3DMina;" vertex="1" parent="1">
          <mxGeometry x="170" y="760" width="550" height="50" as="geometry" />
        </mxCell>
        <mxCell id="TdMQFVT1TNhZnt9DcQD6-19" value="Phoneme" style="rounded=0;whiteSpace=wrap;strokeWidth=2;fillColor=#D4E1F5;strokeColor=#000000;fontSize=17;fontStyle=1;align=center;fontFamily=Mina;fontSource=https%3A%2F%2Ffonts.googleapis.com%2Fcss%3Ffamily%3DMina;" vertex="1" parent="1">
          <mxGeometry x="40" y="810" width="130" height="60" as="geometry" />
        </mxCell>
        <mxCell id="TdMQFVT1TNhZnt9DcQD6-20" value="&lt;b style=&quot;border-color: var(--border-color); font-size: 14px;&quot;&gt;&lt;p style=&quot;margin-left: 0.5in; text-indent: -0.25in; direction: ltr; font-size: 14px;&quot; class=&quot;MsoNormal&quot;&gt;&lt;b style=&quot;font-size: 14px;&quot;&gt;is an abstract unit that can be used for writing down a language in a systematic or unambiguous ways&lt;/b&gt;&lt;/p&gt;&lt;/b&gt;" style="rounded=0;whiteSpace=wrap;html=1;strokeWidth=2;fillColor=#D4E1F5;strokeColor=#000000;fontSize=14;align=left;spacingLeft=-15;fontFamily=Mina;fontSource=https%3A%2F%2Ffonts.googleapis.com%2Fcss%3Ffamily%3DMina;" vertex="1" parent="1">
          <mxGeometry x="170" y="810" width="550" height="60" as="geometry" />
        </mxCell>
        <mxCell id="TdMQFVT1TNhZnt9DcQD6-21" value="&lt;b&gt;Phonetics&amp;nbsp;&lt;/b&gt;" style="rounded=0;whiteSpace=wrap;html=1;strokeWidth=2;fillColor=#D5E8D4;strokeColor=#000000;fontSize=17;fontFamily=Mina;fontSource=https%3A%2F%2Ffonts.googleapis.com%2Fcss%3Ffamily%3DMina;" vertex="1" parent="1">
          <mxGeometry x="40" y="760" width="130" height="50" as="geometry" />
        </mxCell>
        <mxCell id="TdMQFVT1TNhZnt9DcQD6-22" value="3" style="rounded=1;whiteSpace=wrap;html=1;hachureGap=4;fontFamily=Mina;strokeWidth=2;fillColor=#B5739D;strokeColor=#000000;fontSize=22;fontStyle=1;labelBorderColor=none;textShadow=0;labelBackgroundColor=none;align=center;spacing=5;verticalAlign=middle;spacingTop=0;spacingRight=2;fontColor=#ffffff;container=0;fontSource=https%3A%2F%2Ffonts.googleapis.com%2Fcss%3Ffamily%3DMina;fillStyle=solid;" vertex="1" parent="1">
          <mxGeometry x="50" y="720" width="40" height="40" as="geometry" />
        </mxCell>
        <mxCell id="TdMQFVT1TNhZnt9DcQD6-23" value="&lt;b&gt;Differences between Phonetics and a phoneme&lt;/b&gt;" style="rounded=1;whiteSpace=wrap;html=1;hachureGap=4;fontFamily=Mina;strokeWidth=2;fillColor=#B5739D;strokeColor=#000000;fontSize=22;fontStyle=1;labelBorderColor=none;textShadow=0;labelBackgroundColor=none;align=center;spacing=5;verticalAlign=middle;spacingTop=0;spacingRight=2;fontColor=#ffffff;container=0;fontSource=https%3A%2F%2Ffonts.googleapis.com%2Fcss%3Ffamily%3DMina;fillStyle=solid;" vertex="1" parent="1">
          <mxGeometry x="90" y="720" width="510" height="40" as="geometry" />
        </mxCell>
        <mxCell id="TdMQFVT1TNhZnt9DcQD6-24" value="" style="group;align=center;verticalAlign=middle;spacing=2;textDirection=rtl;spacingLeft=-1;spacingRight=8;fontFamily=Mina;fontSource=https%3A%2F%2Ffonts.googleapis.com%2Fcss%3Ffamily%3DMina;" vertex="1" connectable="0" parent="1">
          <mxGeometry x="151.66" y="900" width="451" height="40" as="geometry" />
        </mxCell>
        <mxCell id="TdMQFVT1TNhZnt9DcQD6-25" value="Advantages of Spoken Language" style="rounded=1;whiteSpace=wrap;html=1;fontSize=22;fillColor=#cdeb8b;strokeColor=#000000;strokeWidth=2;fontFamily=Mina;arcSize=0;hachureGap=4;align=right;spacingRight=5;fontStyle=1;spacingLeft=15;fontSource=https%3A%2F%2Ffonts.googleapis.com%2Fcss%3Ffamily%3DMina;" vertex="1" parent="TdMQFVT1TNhZnt9DcQD6-24">
          <mxGeometry x="26.53" width="353.47" height="40" as="geometry" />
        </mxCell>
        <mxCell id="TdMQFVT1TNhZnt9DcQD6-26" value="4" style="ellipse;whiteSpace=wrap;html=1;aspect=fixed;strokeWidth=2;fillColor=#008a00;strokeColor=#000000;fontFamily=Mina;fontStyle=1;fontSize=20;spacingTop=3;fontColor=#ffffff;fontSource=https%3A%2F%2Ffonts.googleapis.com%2Fcss%3Ffamily%3DMina;" vertex="1" parent="TdMQFVT1TNhZnt9DcQD6-24">
          <mxGeometry width="40" height="40" as="geometry" />
        </mxCell>
        <mxCell id="TdMQFVT1TNhZnt9DcQD6-27" value="" style="group;fontFamily=Mina;fontSource=https%3A%2F%2Ffonts.googleapis.com%2Fcss%3Ffamily%3DMina;" vertex="1" connectable="0" parent="1">
          <mxGeometry x="170.66" y="960" width="280" height="80" as="geometry" />
        </mxCell>
        <mxCell id="TdMQFVT1TNhZnt9DcQD6-28" value="Requires no special training" style="rounded=1;whiteSpace=wrap;html=1;hachureGap=4;fontFamily=Mina;strokeWidth=2;fillColor=#cdeb8b;strokeColor=#000000;fontSize=16;fontStyle=1;labelBorderColor=none;textShadow=0;labelBackgroundColor=none;align=left;spacing=7;verticalAlign=middle;fontSource=https%3A%2F%2Ffonts.googleapis.com%2Fcss%3Ffamily%3DMina;" vertex="1" parent="TdMQFVT1TNhZnt9DcQD6-27">
          <mxGeometry y="40" width="220" height="40" as="geometry" />
        </mxCell>
        <mxCell id="TdMQFVT1TNhZnt9DcQD6-29" value="Natural" style="rounded=1;whiteSpace=wrap;html=1;hachureGap=4;fontFamily=Mina;strokeWidth=2;fillColor=#008a00;strokeColor=#000000;fontSize=22;fontStyle=1;labelBorderColor=none;textShadow=0;labelBackgroundColor=none;align=center;spacing=5;verticalAlign=middle;spacingTop=0;spacingRight=2;fontColor=#ffffff;container=0;fontSource=https%3A%2F%2Ffonts.googleapis.com%2Fcss%3Ffamily%3DMina;" vertex="1" parent="TdMQFVT1TNhZnt9DcQD6-27">
          <mxGeometry x="12" width="120" height="40" as="geometry" />
        </mxCell>
        <mxCell id="TdMQFVT1TNhZnt9DcQD6-30" value="" style="group;fontFamily=Mina;fontSource=https%3A%2F%2Ffonts.googleapis.com%2Fcss%3Ffamily%3DMina;" vertex="1" connectable="0" parent="1">
          <mxGeometry x="170.66" y="1070" width="150" height="80" as="geometry" />
        </mxCell>
        <mxCell id="TdMQFVT1TNhZnt9DcQD6-31" value="&lt;div&gt;Has high data rate&lt;/div&gt;" style="rounded=1;whiteSpace=wrap;html=1;hachureGap=4;fontFamily=Mina;strokeWidth=2;fillColor=#cdeb8b;strokeColor=#000000;fontSize=16;fontStyle=1;labelBorderColor=none;textShadow=0;labelBackgroundColor=none;align=left;spacing=7;verticalAlign=middle;fontSource=https%3A%2F%2Ffonts.googleapis.com%2Fcss%3Ffamily%3DMina;" vertex="1" parent="TdMQFVT1TNhZnt9DcQD6-30">
          <mxGeometry y="40" width="150" height="40" as="geometry" />
        </mxCell>
        <mxCell id="TdMQFVT1TNhZnt9DcQD6-32" value="Efficient" style="rounded=1;whiteSpace=wrap;html=1;hachureGap=4;fontFamily=Mina;strokeWidth=2;fillColor=#008a00;strokeColor=#000000;fontSize=22;fontStyle=1;labelBorderColor=none;textShadow=0;labelBackgroundColor=none;align=center;spacing=5;verticalAlign=middle;spacingTop=0;spacingRight=2;fontColor=#ffffff;container=0;fontSource=https%3A%2F%2Ffonts.googleapis.com%2Fcss%3Ffamily%3DMina;" vertex="1" parent="TdMQFVT1TNhZnt9DcQD6-30">
          <mxGeometry x="12" width="110" height="40" as="geometry" />
        </mxCell>
        <mxCell id="TdMQFVT1TNhZnt9DcQD6-33" value="&lt;b&gt;Leaves hands and eyes free&lt;/b&gt;" style="rounded=1;whiteSpace=wrap;html=1;hachureGap=4;fontFamily=Mina;strokeWidth=2;fillColor=#cdeb8b;strokeColor=#000000;fontSize=16;fontStyle=1;labelBorderColor=none;textShadow=0;labelBackgroundColor=none;align=left;spacing=7;verticalAlign=middle;fontSource=https%3A%2F%2Ffonts.googleapis.com%2Fcss%3Ffamily%3DMina;" vertex="1" parent="1">
          <mxGeometry x="467.65999999999997" y="1000" width="220" height="40" as="geometry" />
        </mxCell>
        <mxCell id="TdMQFVT1TNhZnt9DcQD6-34" value="&lt;b&gt;Flexible&lt;/b&gt;" style="rounded=1;whiteSpace=wrap;html=1;hachureGap=4;fontFamily=Mina;strokeWidth=2;fillColor=#008a00;strokeColor=#000000;fontSize=22;fontStyle=1;labelBorderColor=none;textShadow=0;labelBackgroundColor=none;align=center;spacing=5;verticalAlign=middle;spacingTop=0;spacingRight=2;fontColor=#ffffff;container=0;fontSource=https%3A%2F%2Ffonts.googleapis.com%2Fcss%3Ffamily%3DMina;" vertex="1" parent="1">
          <mxGeometry x="589.66" y="960" width="90" height="40" as="geometry" />
        </mxCell>
        <mxCell id="TdMQFVT1TNhZnt9DcQD6-35" value="&lt;b&gt;Can be transmitted/received inexpensively&lt;/b&gt;" style="rounded=1;whiteSpace=wrap;html=1;hachureGap=4;fontFamily=Mina;strokeWidth=2;fillColor=#cdeb8b;strokeColor=#000000;fontSize=16;fontStyle=1;labelBorderColor=none;textShadow=0;labelBackgroundColor=none;align=left;spacing=7;verticalAlign=middle;fontSource=https%3A%2F%2Ffonts.googleapis.com%2Fcss%3Ffamily%3DMina;" vertex="1" parent="1">
          <mxGeometry x="362.65999999999997" y="1110" width="325" height="40" as="geometry" />
        </mxCell>
        <mxCell id="TdMQFVT1TNhZnt9DcQD6-36" value="Economical" style="rounded=1;whiteSpace=wrap;html=1;hachureGap=4;fontFamily=Mina;strokeWidth=2;fillColor=#008a00;strokeColor=#000000;fontSize=22;fontStyle=1;labelBorderColor=none;textShadow=0;labelBackgroundColor=none;align=center;spacing=5;verticalAlign=middle;spacingTop=0;spacingRight=2;fontColor=#ffffff;container=0;fontSource=https%3A%2F%2Ffonts.googleapis.com%2Fcss%3Ffamily%3DMina;" vertex="1" parent="1">
          <mxGeometry x="554.66" y="1070" width="125" height="40" as="geometry" />
        </mxCell>
        <mxCell id="TdMQFVT1TNhZnt9DcQD6-37" value="" style="group;fontFamily=Mina;fontSource=https%3A%2F%2Ffonts.googleapis.com%2Fcss%3Ffamily%3DMina;" vertex="1" connectable="0" parent="1">
          <mxGeometry x="19" y="1710" width="630" height="40" as="geometry" />
        </mxCell>
        <mxCell id="TdMQFVT1TNhZnt9DcQD6-38" value="Sketch a tree showing the different Sound Classifications" style="rounded=1;whiteSpace=wrap;html=1;fontSize=22;fillColor=#ffcc99;strokeColor=#000000;strokeWidth=2;fontFamily=Mina;arcSize=0;hachureGap=4;align=right;spacingRight=5;fontStyle=1;fontSource=https%3A%2F%2Ffonts.googleapis.com%2Fcss%3Ffamily%3DMina;" vertex="1" parent="TdMQFVT1TNhZnt9DcQD6-37">
          <mxGeometry x="20" width="610" height="40" as="geometry" />
        </mxCell>
        <mxCell id="TdMQFVT1TNhZnt9DcQD6-39" value="6" style="ellipse;whiteSpace=wrap;html=1;aspect=fixed;strokeWidth=2;fillColor=#a0522d;strokeColor=#000000;fontFamily=Mina;fontStyle=1;fontSize=20;spacingTop=3;fontColor=#ffffff;fontSource=https%3A%2F%2Ffonts.googleapis.com%2Fcss%3Ffamily%3DMina;" vertex="1" parent="TdMQFVT1TNhZnt9DcQD6-37">
          <mxGeometry width="40" height="40" as="geometry" />
        </mxCell>
        <mxCell id="TdMQFVT1TNhZnt9DcQD6-40" style="rounded=1;orthogonalLoop=1;jettySize=auto;html=1;edgeStyle=orthogonalEdgeStyle;curved=0;strokeWidth=2;fontFamily=Mina;fontSource=https%3A%2F%2Ffonts.googleapis.com%2Fcss%3Ffamily%3DMina;" edge="1" parent="1" source="TdMQFVT1TNhZnt9DcQD6-43" target="TdMQFVT1TNhZnt9DcQD6-44">
          <mxGeometry relative="1" as="geometry">
            <Array as="points">
              <mxPoint x="395" y="1860" />
              <mxPoint x="145" y="1860" />
            </Array>
          </mxGeometry>
        </mxCell>
        <mxCell id="TdMQFVT1TNhZnt9DcQD6-41" style="rounded=1;orthogonalLoop=1;jettySize=auto;html=1;entryX=0.5;entryY=0;entryDx=0;entryDy=0;edgeStyle=orthogonalEdgeStyle;curved=0;strokeWidth=2;fontFamily=Mina;fontSource=https%3A%2F%2Ffonts.googleapis.com%2Fcss%3Ffamily%3DMina;" edge="1" parent="1" source="TdMQFVT1TNhZnt9DcQD6-43" target="TdMQFVT1TNhZnt9DcQD6-45">
          <mxGeometry relative="1" as="geometry" />
        </mxCell>
        <mxCell id="TdMQFVT1TNhZnt9DcQD6-42" style="rounded=1;orthogonalLoop=1;jettySize=auto;html=1;edgeStyle=orthogonalEdgeStyle;curved=0;strokeWidth=2;fontFamily=Mina;fontSource=https%3A%2F%2Ffonts.googleapis.com%2Fcss%3Ffamily%3DMina;" edge="1" parent="1" source="TdMQFVT1TNhZnt9DcQD6-43" target="TdMQFVT1TNhZnt9DcQD6-50">
          <mxGeometry relative="1" as="geometry">
            <Array as="points">
              <mxPoint x="395" y="1860" />
              <mxPoint x="635" y="1860" />
            </Array>
          </mxGeometry>
        </mxCell>
        <mxCell id="TdMQFVT1TNhZnt9DcQD6-43" value="Sound Classifications" style="rounded=1;whiteSpace=wrap;html=1;strokeWidth=2;fillColor=#E6D0DE;strokeColor=#36393d;arcSize=50;fontFamily=Mina;fontStyle=1;fontSize=14;fontSource=https%3A%2F%2Ffonts.googleapis.com%2Fcss%3Ffamily%3DMina;" vertex="1" parent="1">
          <mxGeometry x="320" y="1790" width="150" height="40" as="geometry" />
        </mxCell>
        <mxCell id="TdMQFVT1TNhZnt9DcQD6-44" value="Vowels" style="rounded=1;whiteSpace=wrap;html=1;strokeWidth=2;fillColor=#D5E8D4;strokeColor=#36393d;arcSize=50;fontFamily=Mina;fontStyle=1;fontSize=14;fontSource=https%3A%2F%2Ffonts.googleapis.com%2Fcss%3Ffamily%3DMina;" vertex="1" parent="1">
          <mxGeometry x="70" y="1900" width="150" height="40" as="geometry" />
        </mxCell>
        <mxCell id="TdMQFVT1TNhZnt9DcQD6-45" value="Semivowels" style="rounded=1;whiteSpace=wrap;html=1;strokeWidth=2;fillColor=#D5E8D4;strokeColor=#36393d;arcSize=50;fontFamily=Mina;fontStyle=1;fontSize=14;fontSource=https%3A%2F%2Ffonts.googleapis.com%2Fcss%3Ffamily%3DMina;" vertex="1" parent="1">
          <mxGeometry x="320" y="1900" width="150" height="40" as="geometry" />
        </mxCell>
        <mxCell id="TdMQFVT1TNhZnt9DcQD6-46" style="edgeStyle=orthogonalEdgeStyle;rounded=1;orthogonalLoop=1;jettySize=auto;html=1;curved=0;strokeWidth=2;fontFamily=Mina;fontSource=https%3A%2F%2Ffonts.googleapis.com%2Fcss%3Ffamily%3DMina;" edge="1" parent="1" source="TdMQFVT1TNhZnt9DcQD6-50" target="TdMQFVT1TNhZnt9DcQD6-53">
          <mxGeometry relative="1" as="geometry">
            <mxPoint x="665.0285714285715" y="1950" as="sourcePoint" />
            <mxPoint x="627.5" y="2040" as="targetPoint" />
            <Array as="points">
              <mxPoint x="635" y="1990" />
              <mxPoint x="610" y="1990" />
            </Array>
          </mxGeometry>
        </mxCell>
        <mxCell id="TdMQFVT1TNhZnt9DcQD6-47" style="edgeStyle=orthogonalEdgeStyle;rounded=1;orthogonalLoop=1;jettySize=auto;html=1;curved=0;strokeWidth=2;fontFamily=Mina;fontSource=https%3A%2F%2Ffonts.googleapis.com%2Fcss%3Ffamily%3DMina;" edge="1" parent="1" source="TdMQFVT1TNhZnt9DcQD6-50" target="TdMQFVT1TNhZnt9DcQD6-51">
          <mxGeometry relative="1" as="geometry">
            <Array as="points">
              <mxPoint x="635" y="1980" />
              <mxPoint x="395" y="1980" />
            </Array>
          </mxGeometry>
        </mxCell>
        <mxCell id="TdMQFVT1TNhZnt9DcQD6-48" style="edgeStyle=orthogonalEdgeStyle;rounded=1;orthogonalLoop=1;jettySize=auto;html=1;curved=0;strokeWidth=2;fontFamily=Mina;fontSource=https%3A%2F%2Ffonts.googleapis.com%2Fcss%3Ffamily%3DMina;" edge="1" parent="1" source="TdMQFVT1TNhZnt9DcQD6-50" target="TdMQFVT1TNhZnt9DcQD6-52">
          <mxGeometry relative="1" as="geometry">
            <Array as="points">
              <mxPoint x="635" y="1980" />
              <mxPoint x="500" y="1980" />
            </Array>
          </mxGeometry>
        </mxCell>
        <mxCell id="TdMQFVT1TNhZnt9DcQD6-49" style="edgeStyle=orthogonalEdgeStyle;rounded=1;orthogonalLoop=1;jettySize=auto;html=1;curved=0;strokeWidth=2;fontFamily=Mina;fontSource=https%3A%2F%2Ffonts.googleapis.com%2Fcss%3Ffamily%3DMina;" edge="1" parent="1" source="TdMQFVT1TNhZnt9DcQD6-50" target="TdMQFVT1TNhZnt9DcQD6-54">
          <mxGeometry relative="1" as="geometry">
            <Array as="points">
              <mxPoint x="635" y="1980" />
              <mxPoint x="710" y="1980" />
            </Array>
          </mxGeometry>
        </mxCell>
        <mxCell id="TdMQFVT1TNhZnt9DcQD6-50" value="Consonants" style="rounded=1;whiteSpace=wrap;html=1;strokeWidth=2;fillColor=#D5E8D4;strokeColor=#36393d;arcSize=50;fontFamily=Mina;fontStyle=1;fontSize=14;fontSource=https%3A%2F%2Ffonts.googleapis.com%2Fcss%3Ffamily%3DMina;" vertex="1" parent="1">
          <mxGeometry x="560" y="1900" width="150" height="40" as="geometry" />
        </mxCell>
        <mxCell id="TdMQFVT1TNhZnt9DcQD6-51" value="Nasals" style="rounded=1;whiteSpace=wrap;html=1;strokeWidth=2;fillColor=#FFF2CC;strokeColor=#36393d;arcSize=50;fontFamily=Mina;fontStyle=1;fontSize=14;fontSource=https%3A%2F%2Ffonts.googleapis.com%2Fcss%3Ffamily%3DMina;" vertex="1" parent="1">
          <mxGeometry x="359" y="2030" width="72" height="40" as="geometry" />
        </mxCell>
        <mxCell id="TdMQFVT1TNhZnt9DcQD6-52" value="Stops" style="rounded=1;whiteSpace=wrap;html=1;strokeWidth=2;fillColor=#FFF2CC;strokeColor=#36393d;arcSize=50;fontFamily=Mina;fontStyle=1;fontSize=14;fontSource=https%3A%2F%2Ffonts.googleapis.com%2Fcss%3Ffamily%3DMina;" vertex="1" parent="1">
          <mxGeometry x="466" y="2030" width="68" height="40" as="geometry" />
        </mxCell>
        <mxCell id="TdMQFVT1TNhZnt9DcQD6-53" value="Fricatives" style="rounded=1;whiteSpace=wrap;html=1;strokeWidth=2;fillColor=#FFF2CC;strokeColor=#36393d;arcSize=50;fontFamily=Mina;fontStyle=1;fontSize=14;fontSource=https%3A%2F%2Ffonts.googleapis.com%2Fcss%3Ffamily%3DMina;" vertex="1" parent="1">
          <mxGeometry x="562" y="2030" width="85" height="40" as="geometry" />
        </mxCell>
        <mxCell id="TdMQFVT1TNhZnt9DcQD6-54" value="Affricates" style="rounded=1;whiteSpace=wrap;html=1;strokeWidth=2;fillColor=#FFF2CC;strokeColor=#36393d;arcSize=50;fontFamily=Mina;fontStyle=1;fontSize=14;fontSource=https%3A%2F%2Ffonts.googleapis.com%2Fcss%3Ffamily%3DMina;" vertex="1" parent="1">
          <mxGeometry x="668.06" y="2030" width="81.94" height="40" as="geometry" />
        </mxCell>
        <mxCell id="TdMQFVT1TNhZnt9DcQD6-55" value="" style="group;fontFamily=Mina;fontSource=https%3A%2F%2Ffonts.googleapis.com%2Fcss%3Ffamily%3DMina;" vertex="1" connectable="0" parent="1">
          <mxGeometry x="49.5" y="2820" width="630" height="40" as="geometry" />
        </mxCell>
        <mxCell id="TdMQFVT1TNhZnt9DcQD6-56" value="8" style="ellipse;whiteSpace=wrap;html=1;aspect=fixed;strokeWidth=2;fillColor=#a0522d;strokeColor=#000000;fontFamily=Mina;fontStyle=1;fontSize=20;spacingTop=3;fontColor=#ffffff;fontSource=https%3A%2F%2Ffonts.googleapis.com%2Fcss%3Ffamily%3DMina;" vertex="1" parent="TdMQFVT1TNhZnt9DcQD6-55">
          <mxGeometry width="40" height="40" as="geometry" />
        </mxCell>
        <mxCell id="TdMQFVT1TNhZnt9DcQD6-57" value="" style="group;fontFamily=Mina;fontSource=https%3A%2F%2Ffonts.googleapis.com%2Fcss%3Ffamily%3DMina;" vertex="1" connectable="0" parent="1">
          <mxGeometry x="10" y="3530" width="630" height="40" as="geometry" />
        </mxCell>
        <mxCell id="TdMQFVT1TNhZnt9DcQD6-58" value="Sketch a tree showing the different Sound Classifications" style="rounded=1;whiteSpace=wrap;html=1;fontSize=22;fillColor=#ffcc99;strokeColor=#000000;strokeWidth=2;fontFamily=Mina;arcSize=0;hachureGap=4;align=right;spacingRight=5;fontStyle=1;fontSource=https%3A%2F%2Ffonts.googleapis.com%2Fcss%3Ffamily%3DMina;" vertex="1" parent="TdMQFVT1TNhZnt9DcQD6-57">
          <mxGeometry x="20" width="610" height="40" as="geometry" />
        </mxCell>
        <mxCell id="TdMQFVT1TNhZnt9DcQD6-59" value="11" style="ellipse;whiteSpace=wrap;html=1;aspect=fixed;strokeWidth=2;fillColor=#a0522d;strokeColor=#000000;fontFamily=Mina;fontStyle=1;fontSize=20;spacingTop=3;fontColor=#ffffff;fontSource=https%3A%2F%2Ffonts.googleapis.com%2Fcss%3Ffamily%3DMina;" vertex="1" parent="TdMQFVT1TNhZnt9DcQD6-57">
          <mxGeometry width="40" height="40" as="geometry" />
        </mxCell>
        <mxCell id="TdMQFVT1TNhZnt9DcQD6-73" value="" style="group;fontFamily=Mina;fontSource=https%3A%2F%2Ffonts.googleapis.com%2Fcss%3Ffamily%3DMina;" vertex="1" connectable="0" parent="1">
          <mxGeometry x="20" y="4050" width="674" height="65" as="geometry" />
        </mxCell>
        <mxCell id="TdMQFVT1TNhZnt9DcQD6-74" value="&lt;b&gt;Explain with sketch the different Activities for designing the Pattern Recognition Systems&lt;/b&gt;" style="rounded=1;whiteSpace=wrap;html=1;fontSize=22;fillColor=#ffcc99;strokeColor=#000000;strokeWidth=2;fontFamily=Mina;arcSize=0;hachureGap=4;align=left;spacingRight=5;fontStyle=1;spacingLeft=22;fontSource=https%3A%2F%2Ffonts.googleapis.com%2Fcss%3Ffamily%3DMina;" vertex="1" parent="TdMQFVT1TNhZnt9DcQD6-73">
          <mxGeometry x="44" y="2" width="630" height="60" as="geometry" />
        </mxCell>
        <mxCell id="TdMQFVT1TNhZnt9DcQD6-75" value="11" style="ellipse;whiteSpace=wrap;html=1;aspect=fixed;strokeWidth=2;fillColor=#a0522d;strokeColor=#000000;fontFamily=Mina;fontStyle=1;fontSize=20;spacingTop=3;fontColor=#ffffff;fontSource=https%3A%2F%2Ffonts.googleapis.com%2Fcss%3Ffamily%3DMina;" vertex="1" parent="TdMQFVT1TNhZnt9DcQD6-73">
          <mxGeometry width="65" height="65" as="geometry" />
        </mxCell>
        <mxCell id="TdMQFVT1TNhZnt9DcQD6-99" style="edgeStyle=orthogonalEdgeStyle;rounded=1;orthogonalLoop=1;jettySize=auto;html=1;curved=0;strokeWidth=2;fontFamily=Mina;fontSource=https%3A%2F%2Ffonts.googleapis.com%2Fcss%3Ffamily%3DMina;" edge="1" parent="1" source="TdMQFVT1TNhZnt9DcQD6-102" target="TdMQFVT1TNhZnt9DcQD6-108">
          <mxGeometry relative="1" as="geometry" />
        </mxCell>
        <mxCell id="TdMQFVT1TNhZnt9DcQD6-100" style="edgeStyle=orthogonalEdgeStyle;rounded=1;orthogonalLoop=1;jettySize=auto;html=1;curved=0;strokeWidth=2;fontFamily=Mina;fontSource=https%3A%2F%2Ffonts.googleapis.com%2Fcss%3Ffamily%3DMina;" edge="1" parent="1" source="TdMQFVT1TNhZnt9DcQD6-102" target="TdMQFVT1TNhZnt9DcQD6-107">
          <mxGeometry relative="1" as="geometry" />
        </mxCell>
        <mxCell id="TdMQFVT1TNhZnt9DcQD6-101" style="edgeStyle=orthogonalEdgeStyle;rounded=1;orthogonalLoop=1;jettySize=auto;html=1;curved=0;strokeWidth=2;fontFamily=Mina;fontSource=https%3A%2F%2Ffonts.googleapis.com%2Fcss%3Ffamily%3DMina;" edge="1" parent="1" source="TdMQFVT1TNhZnt9DcQD6-102" target="TdMQFVT1TNhZnt9DcQD6-103">
          <mxGeometry relative="1" as="geometry" />
        </mxCell>
        <mxCell id="TdMQFVT1TNhZnt9DcQD6-102" value="Speech Processing" style="rounded=1;whiteSpace=wrap;html=1;strokeWidth=2;fillColor=#D5E8D4;strokeColor=#36393d;arcSize=50;fontFamily=Mina;fontStyle=1;fontSize=14;fontSource=https%3A%2F%2Ffonts.googleapis.com%2Fcss%3Ffamily%3DMina;" vertex="1" parent="1">
          <mxGeometry x="362" y="4770" width="140" height="38.34" as="geometry" />
        </mxCell>
        <mxCell id="TdMQFVT1TNhZnt9DcQD6-103" value="Coding" style="rounded=1;whiteSpace=wrap;html=1;strokeWidth=2;fillColor=#D5E8D4;strokeColor=#36393d;arcSize=50;fontFamily=Mina;fontStyle=1;fontSize=14;fontSource=https%3A%2F%2Ffonts.googleapis.com%2Fcss%3Ffamily%3DMina;" vertex="1" parent="1">
          <mxGeometry x="610" y="4890" width="140" height="38.34" as="geometry" />
        </mxCell>
        <mxCell id="TdMQFVT1TNhZnt9DcQD6-104" style="edgeStyle=orthogonalEdgeStyle;rounded=1;orthogonalLoop=1;jettySize=auto;html=1;curved=0;strokeWidth=2;fontFamily=Mina;fontSource=https%3A%2F%2Ffonts.googleapis.com%2Fcss%3Ffamily%3DMina;" edge="1" parent="1" source="TdMQFVT1TNhZnt9DcQD6-107" target="TdMQFVT1TNhZnt9DcQD6-109">
          <mxGeometry relative="1" as="geometry">
            <Array as="points">
              <mxPoint x="432" y="4970" />
              <mxPoint x="211" y="4970" />
            </Array>
          </mxGeometry>
        </mxCell>
        <mxCell id="TdMQFVT1TNhZnt9DcQD6-105" style="edgeStyle=orthogonalEdgeStyle;rounded=1;orthogonalLoop=1;jettySize=auto;html=1;curved=0;strokeWidth=2;fontFamily=Mina;fontSource=https%3A%2F%2Ffonts.googleapis.com%2Fcss%3Ffamily%3DMina;" edge="1" parent="1" source="TdMQFVT1TNhZnt9DcQD6-107" target="TdMQFVT1TNhZnt9DcQD6-113">
          <mxGeometry relative="1" as="geometry" />
        </mxCell>
        <mxCell id="TdMQFVT1TNhZnt9DcQD6-106" style="edgeStyle=orthogonalEdgeStyle;rounded=1;orthogonalLoop=1;jettySize=auto;html=1;curved=0;strokeWidth=2;fontFamily=Mina;fontSource=https%3A%2F%2Ffonts.googleapis.com%2Fcss%3Ffamily%3DMina;" edge="1" parent="1" source="TdMQFVT1TNhZnt9DcQD6-107" target="TdMQFVT1TNhZnt9DcQD6-114">
          <mxGeometry relative="1" as="geometry">
            <Array as="points">
              <mxPoint x="432" y="4970" />
              <mxPoint x="671" y="4970" />
            </Array>
          </mxGeometry>
        </mxCell>
        <mxCell id="TdMQFVT1TNhZnt9DcQD6-107" value="Recognition" style="rounded=1;whiteSpace=wrap;html=1;strokeWidth=2;fillColor=#D5E8D4;strokeColor=#36393d;arcSize=50;fontFamily=Mina;fontStyle=1;fontSize=14;fontSource=https%3A%2F%2Ffonts.googleapis.com%2Fcss%3Ffamily%3DMina;" vertex="1" parent="1">
          <mxGeometry x="362" y="4890" width="140" height="38.34" as="geometry" />
        </mxCell>
        <mxCell id="TdMQFVT1TNhZnt9DcQD6-108" value="Analysis/Synthesis" style="rounded=1;whiteSpace=wrap;html=1;strokeWidth=2;fillColor=#D5E8D4;strokeColor=#36393d;arcSize=50;fontFamily=Mina;fontStyle=1;fontSize=14;fontSource=https%3A%2F%2Ffonts.googleapis.com%2Fcss%3Ffamily%3DMina;" vertex="1" parent="1">
          <mxGeometry x="150" y="4890" width="140" height="38.34" as="geometry" />
        </mxCell>
        <mxCell id="TdMQFVT1TNhZnt9DcQD6-109" value="Speaker Recognition" style="rounded=1;whiteSpace=wrap;html=1;strokeWidth=2;fillColor=#D5E8D4;strokeColor=#36393d;arcSize=50;fontFamily=Mina;fontStyle=1;fontSize=14;fontSource=https%3A%2F%2Ffonts.googleapis.com%2Fcss%3Ffamily%3DMina;" vertex="1" parent="1">
          <mxGeometry x="140.5" y="5030" width="140" height="38.34" as="geometry" />
        </mxCell>
        <mxCell id="TdMQFVT1TNhZnt9DcQD6-110" style="edgeStyle=orthogonalEdgeStyle;rounded=1;orthogonalLoop=1;jettySize=auto;html=1;curved=0;strokeWidth=2;fontFamily=Mina;fontSource=https%3A%2F%2Ffonts.googleapis.com%2Fcss%3Ffamily%3DMina;" edge="1" parent="1" source="TdMQFVT1TNhZnt9DcQD6-113" target="TdMQFVT1TNhZnt9DcQD6-122">
          <mxGeometry relative="1" as="geometry" />
        </mxCell>
        <mxCell id="TdMQFVT1TNhZnt9DcQD6-111" style="edgeStyle=orthogonalEdgeStyle;rounded=1;orthogonalLoop=1;jettySize=auto;html=1;curved=0;strokeWidth=2;fontFamily=Mina;fontSource=https%3A%2F%2Ffonts.googleapis.com%2Fcss%3Ffamily%3DMina;" edge="1" parent="1" source="TdMQFVT1TNhZnt9DcQD6-113" target="TdMQFVT1TNhZnt9DcQD6-118">
          <mxGeometry relative="1" as="geometry">
            <Array as="points">
              <mxPoint x="431" y="5100" />
              <mxPoint x="211" y="5100" />
            </Array>
          </mxGeometry>
        </mxCell>
        <mxCell id="TdMQFVT1TNhZnt9DcQD6-112" style="edgeStyle=orthogonalEdgeStyle;rounded=1;orthogonalLoop=1;jettySize=auto;html=1;curved=0;strokeWidth=2;fontFamily=Mina;fontSource=https%3A%2F%2Ffonts.googleapis.com%2Fcss%3Ffamily%3DMina;" edge="1" parent="1" source="TdMQFVT1TNhZnt9DcQD6-113" target="TdMQFVT1TNhZnt9DcQD6-126">
          <mxGeometry relative="1" as="geometry">
            <Array as="points">
              <mxPoint x="431" y="5100" />
              <mxPoint x="671" y="5100" />
            </Array>
          </mxGeometry>
        </mxCell>
        <mxCell id="TdMQFVT1TNhZnt9DcQD6-113" value="Speech Recognition" style="rounded=1;whiteSpace=wrap;html=1;strokeWidth=2;fillColor=#D5E8D4;strokeColor=#36393d;arcSize=50;fontFamily=Mina;fontStyle=1;fontSize=14;fontSource=https%3A%2F%2Ffonts.googleapis.com%2Fcss%3Ffamily%3DMina;" vertex="1" parent="1">
          <mxGeometry x="361" y="5030" width="140" height="38.34" as="geometry" />
        </mxCell>
        <mxCell id="TdMQFVT1TNhZnt9DcQD6-114" value="Language Identification" style="rounded=1;whiteSpace=wrap;html=1;strokeWidth=2;fillColor=#D5E8D4;strokeColor=#36393d;arcSize=50;fontFamily=Mina;fontStyle=1;fontSize=14;fontSource=https%3A%2F%2Ffonts.googleapis.com%2Fcss%3Ffamily%3DMina;" vertex="1" parent="1">
          <mxGeometry x="600.5" y="5030" width="140" height="38.34" as="geometry" />
        </mxCell>
        <mxCell id="TdMQFVT1TNhZnt9DcQD6-115" style="edgeStyle=orthogonalEdgeStyle;rounded=1;orthogonalLoop=1;jettySize=auto;html=1;curved=0;strokeWidth=2;fontFamily=Mina;fontSource=https%3A%2F%2Ffonts.googleapis.com%2Fcss%3Ffamily%3DMina;" edge="1" parent="1" source="TdMQFVT1TNhZnt9DcQD6-118" target="TdMQFVT1TNhZnt9DcQD6-127">
          <mxGeometry relative="1" as="geometry">
            <Array as="points">
              <mxPoint x="107" y="5179.17" />
              <mxPoint x="107" y="5307.51" />
            </Array>
          </mxGeometry>
        </mxCell>
        <mxCell id="TdMQFVT1TNhZnt9DcQD6-116" style="edgeStyle=orthogonalEdgeStyle;rounded=1;orthogonalLoop=1;jettySize=auto;html=1;curved=0;strokeWidth=2;fontFamily=Mina;fontSource=https%3A%2F%2Ffonts.googleapis.com%2Fcss%3Ffamily%3DMina;" edge="1" parent="1" source="TdMQFVT1TNhZnt9DcQD6-118" target="TdMQFVT1TNhZnt9DcQD6-128">
          <mxGeometry relative="1" as="geometry">
            <Array as="points">
              <mxPoint x="107" y="5179" />
              <mxPoint x="107" y="5368" />
            </Array>
          </mxGeometry>
        </mxCell>
        <mxCell id="TdMQFVT1TNhZnt9DcQD6-117" style="edgeStyle=orthogonalEdgeStyle;rounded=1;orthogonalLoop=1;jettySize=auto;html=1;curved=0;strokeWidth=2;fontFamily=Mina;fontSource=https%3A%2F%2Ffonts.googleapis.com%2Fcss%3Ffamily%3DMina;" edge="1" parent="1" source="TdMQFVT1TNhZnt9DcQD6-118" target="TdMQFVT1TNhZnt9DcQD6-129">
          <mxGeometry relative="1" as="geometry">
            <Array as="points">
              <mxPoint x="107" y="5179" />
              <mxPoint x="107" y="5438" />
            </Array>
          </mxGeometry>
        </mxCell>
        <mxCell id="TdMQFVT1TNhZnt9DcQD6-118" value="Speech mode" style="rounded=1;whiteSpace=wrap;html=1;strokeWidth=2;fillColor=#D5E8D4;strokeColor=#36393d;arcSize=50;fontFamily=Mina;fontStyle=1;fontSize=14;fontSource=https%3A%2F%2Ffonts.googleapis.com%2Fcss%3Ffamily%3DMina;" vertex="1" parent="1">
          <mxGeometry x="140.5" y="5160" width="140" height="38.34" as="geometry" />
        </mxCell>
        <mxCell id="TdMQFVT1TNhZnt9DcQD6-119" style="edgeStyle=orthogonalEdgeStyle;rounded=1;orthogonalLoop=1;jettySize=auto;html=1;curved=0;strokeWidth=2;fontFamily=Mina;fontSource=https%3A%2F%2Ffonts.googleapis.com%2Fcss%3Ffamily%3DMina;" edge="1" parent="1" source="TdMQFVT1TNhZnt9DcQD6-122" target="TdMQFVT1TNhZnt9DcQD6-130">
          <mxGeometry relative="1" as="geometry">
            <Array as="points">
              <mxPoint x="337" y="5179" />
              <mxPoint x="337" y="5318" />
            </Array>
          </mxGeometry>
        </mxCell>
        <mxCell id="TdMQFVT1TNhZnt9DcQD6-120" style="edgeStyle=orthogonalEdgeStyle;rounded=1;orthogonalLoop=1;jettySize=auto;html=1;curved=0;strokeWidth=2;fontFamily=Mina;fontSource=https%3A%2F%2Ffonts.googleapis.com%2Fcss%3Ffamily%3DMina;" edge="1" parent="1" source="TdMQFVT1TNhZnt9DcQD6-122" target="TdMQFVT1TNhZnt9DcQD6-131">
          <mxGeometry relative="1" as="geometry">
            <Array as="points">
              <mxPoint x="337" y="5179" />
              <mxPoint x="337" y="5390" />
            </Array>
          </mxGeometry>
        </mxCell>
        <mxCell id="TdMQFVT1TNhZnt9DcQD6-121" style="edgeStyle=orthogonalEdgeStyle;rounded=1;orthogonalLoop=1;jettySize=auto;html=1;curved=0;strokeWidth=2;fontFamily=Mina;fontSource=https%3A%2F%2Ffonts.googleapis.com%2Fcss%3Ffamily%3DMina;" edge="1" parent="1" source="TdMQFVT1TNhZnt9DcQD6-122" target="TdMQFVT1TNhZnt9DcQD6-132">
          <mxGeometry relative="1" as="geometry">
            <Array as="points">
              <mxPoint x="337" y="5179" />
              <mxPoint x="337" y="5456" />
            </Array>
          </mxGeometry>
        </mxCell>
        <mxCell id="TdMQFVT1TNhZnt9DcQD6-122" value="Speaker mode" style="rounded=1;whiteSpace=wrap;html=1;strokeWidth=2;fillColor=#D5E8D4;strokeColor=#36393d;arcSize=50;fontFamily=Mina;fontStyle=1;fontSize=14;fontSource=https%3A%2F%2Ffonts.googleapis.com%2Fcss%3Ffamily%3DMina;" vertex="1" parent="1">
          <mxGeometry x="361" y="5160" width="140" height="38.34" as="geometry" />
        </mxCell>
        <mxCell id="TdMQFVT1TNhZnt9DcQD6-123" style="edgeStyle=orthogonalEdgeStyle;rounded=1;orthogonalLoop=1;jettySize=auto;html=1;curved=0;strokeWidth=2;fontFamily=Mina;fontSource=https%3A%2F%2Ffonts.googleapis.com%2Fcss%3Ffamily%3DMina;" edge="1" parent="1" source="TdMQFVT1TNhZnt9DcQD6-126" target="TdMQFVT1TNhZnt9DcQD6-133">
          <mxGeometry relative="1" as="geometry">
            <Array as="points">
              <mxPoint x="577" y="5179" />
              <mxPoint x="577" y="5318" />
            </Array>
          </mxGeometry>
        </mxCell>
        <mxCell id="TdMQFVT1TNhZnt9DcQD6-124" style="edgeStyle=orthogonalEdgeStyle;rounded=1;orthogonalLoop=1;jettySize=auto;html=1;curved=0;strokeWidth=2;fontFamily=Mina;fontSource=https%3A%2F%2Ffonts.googleapis.com%2Fcss%3Ffamily%3DMina;" edge="1" parent="1" source="TdMQFVT1TNhZnt9DcQD6-126" target="TdMQFVT1TNhZnt9DcQD6-134">
          <mxGeometry relative="1" as="geometry">
            <Array as="points">
              <mxPoint x="577" y="5179" />
              <mxPoint x="577" y="5390" />
            </Array>
          </mxGeometry>
        </mxCell>
        <mxCell id="TdMQFVT1TNhZnt9DcQD6-125" style="edgeStyle=orthogonalEdgeStyle;rounded=1;orthogonalLoop=1;jettySize=auto;html=1;curved=0;strokeWidth=2;fontFamily=Mina;fontSource=https%3A%2F%2Ffonts.googleapis.com%2Fcss%3Ffamily%3DMina;" edge="1" parent="1" source="TdMQFVT1TNhZnt9DcQD6-126" target="TdMQFVT1TNhZnt9DcQD6-135">
          <mxGeometry relative="1" as="geometry">
            <Array as="points">
              <mxPoint x="577" y="5179" />
              <mxPoint x="577" y="5460" />
            </Array>
          </mxGeometry>
        </mxCell>
        <mxCell id="TdMQFVT1TNhZnt9DcQD6-126" value="Vocabulary size" style="rounded=1;whiteSpace=wrap;html=1;strokeWidth=2;fillColor=#D5E8D4;strokeColor=#36393d;arcSize=50;fontFamily=Mina;fontStyle=1;fontSize=14;fontSource=https%3A%2F%2Ffonts.googleapis.com%2Fcss%3Ffamily%3DMina;" vertex="1" parent="1">
          <mxGeometry x="600.5" y="5160" width="140" height="38.34" as="geometry" />
        </mxCell>
        <mxCell id="TdMQFVT1TNhZnt9DcQD6-127" value="Isolated Speech" style="rounded=1;whiteSpace=wrap;html=1;strokeWidth=2;fillColor=#D5E8D4;strokeColor=#36393d;arcSize=50;fontFamily=Mina;fontStyle=1;fontSize=14;fontSource=https%3A%2F%2Ffonts.googleapis.com%2Fcss%3Ffamily%3DMina;" vertex="1" parent="1">
          <mxGeometry x="140.5" y="5288.34" width="140" height="38.34" as="geometry" />
        </mxCell>
        <mxCell id="TdMQFVT1TNhZnt9DcQD6-128" value="Connected Speech" style="rounded=1;whiteSpace=wrap;html=1;strokeWidth=2;fillColor=#D5E8D4;strokeColor=#36393d;arcSize=50;fontFamily=Mina;fontStyle=1;fontSize=14;fontSource=https%3A%2F%2Ffonts.googleapis.com%2Fcss%3Ffamily%3DMina;" vertex="1" parent="1">
          <mxGeometry x="140.5" y="5348.34" width="140" height="38.34" as="geometry" />
        </mxCell>
        <mxCell id="TdMQFVT1TNhZnt9DcQD6-129" value="Continuous Speech" style="rounded=1;whiteSpace=wrap;html=1;strokeWidth=2;fillColor=#D5E8D4;strokeColor=#36393d;arcSize=50;fontFamily=Mina;fontStyle=1;fontSize=14;fontSource=https%3A%2F%2Ffonts.googleapis.com%2Fcss%3Ffamily%3DMina;" vertex="1" parent="1">
          <mxGeometry x="140.5" y="5418.34" width="140" height="38.34" as="geometry" />
        </mxCell>
        <mxCell id="TdMQFVT1TNhZnt9DcQD6-130" value="Speaker dependent" style="rounded=1;whiteSpace=wrap;html=1;strokeWidth=2;fillColor=#D5E8D4;strokeColor=#36393d;arcSize=50;fontFamily=Mina;fontStyle=1;fontSize=14;fontSource=https%3A%2F%2Ffonts.googleapis.com%2Fcss%3Ffamily%3DMina;" vertex="1" parent="1">
          <mxGeometry x="361" y="5298.34" width="140" height="38.34" as="geometry" />
        </mxCell>
        <mxCell id="TdMQFVT1TNhZnt9DcQD6-131" value="Speaker independent" style="rounded=1;whiteSpace=wrap;html=1;strokeWidth=2;fillColor=#D5E8D4;strokeColor=#36393d;arcSize=50;fontFamily=Mina;fontStyle=1;fontSize=14;fontSource=https%3A%2F%2Ffonts.googleapis.com%2Fcss%3Ffamily%3DMina;" vertex="1" parent="1">
          <mxGeometry x="361" y="5368.34" width="140" height="38.34" as="geometry" />
        </mxCell>
        <mxCell id="TdMQFVT1TNhZnt9DcQD6-132" value="Speaker adaptive" style="rounded=1;whiteSpace=wrap;html=1;strokeWidth=2;fillColor=#D5E8D4;strokeColor=#36393d;arcSize=50;fontFamily=Mina;fontStyle=1;fontSize=14;fontSource=https%3A%2F%2Ffonts.googleapis.com%2Fcss%3Ffamily%3DMina;" vertex="1" parent="1">
          <mxGeometry x="361" y="5436.68" width="140" height="38.34" as="geometry" />
        </mxCell>
        <mxCell id="TdMQFVT1TNhZnt9DcQD6-133" value="small" style="rounded=1;whiteSpace=wrap;html=1;strokeWidth=2;fillColor=#D5E8D4;strokeColor=#36393d;arcSize=50;fontFamily=Mina;fontStyle=1;fontSize=14;fontSource=https%3A%2F%2Ffonts.googleapis.com%2Fcss%3Ffamily%3DMina;" vertex="1" parent="1">
          <mxGeometry x="601.8" y="5298.34" width="100" height="38.34" as="geometry" />
        </mxCell>
        <mxCell id="TdMQFVT1TNhZnt9DcQD6-134" value="medium" style="rounded=1;whiteSpace=wrap;html=1;strokeWidth=2;fillColor=#D5E8D4;strokeColor=#36393d;arcSize=50;fontFamily=Mina;fontStyle=1;fontSize=14;fontSource=https%3A%2F%2Ffonts.googleapis.com%2Fcss%3Ffamily%3DMina;" vertex="1" parent="1">
          <mxGeometry x="601.8" y="5368.34" width="100" height="38.34" as="geometry" />
        </mxCell>
        <mxCell id="TdMQFVT1TNhZnt9DcQD6-135" value="large" style="rounded=1;whiteSpace=wrap;html=1;strokeWidth=2;fillColor=#D5E8D4;strokeColor=#36393d;arcSize=50;fontFamily=Mina;fontStyle=1;fontSize=14;fontSource=https%3A%2F%2Ffonts.googleapis.com%2Fcss%3Ffamily%3DMina;" vertex="1" parent="1">
          <mxGeometry x="601.8" y="5436.68" width="100" height="38.34" as="geometry" />
        </mxCell>
        <mxCell id="TdMQFVT1TNhZnt9DcQD6-136" value="" style="group;fontFamily=Mina;fontSource=https%3A%2F%2Ffonts.googleapis.com%2Fcss%3Ffamily%3DMina;" vertex="1" connectable="0" parent="1">
          <mxGeometry x="105.5" y="4710" width="600" height="41" as="geometry" />
        </mxCell>
        <mxCell id="TdMQFVT1TNhZnt9DcQD6-137" value="&lt;b&gt;Sketch a tree showing the ASR system classifications&lt;/b&gt;" style="rounded=1;whiteSpace=wrap;html=1;fontSize=22;fillColor=#ffcc99;strokeColor=#000000;strokeWidth=2;fontFamily=Mina;arcSize=0;hachureGap=4;align=left;spacingRight=5;fontStyle=1;spacingLeft=22;fontSource=https%3A%2F%2Ffonts.googleapis.com%2Fcss%3Ffamily%3DMina;" vertex="1" parent="TdMQFVT1TNhZnt9DcQD6-136">
          <mxGeometry x="20" width="580" height="40" as="geometry" />
        </mxCell>
        <mxCell id="TdMQFVT1TNhZnt9DcQD6-138" value="12" style="ellipse;whiteSpace=wrap;html=1;aspect=fixed;strokeWidth=2;fillColor=#a0522d;strokeColor=#000000;fontFamily=Mina;fontStyle=1;fontSize=20;spacingTop=3;fontColor=#ffffff;fontSource=https%3A%2F%2Ffonts.googleapis.com%2Fcss%3Ffamily%3DMina;" vertex="1" parent="TdMQFVT1TNhZnt9DcQD6-136">
          <mxGeometry width="41" height="41" as="geometry" />
        </mxCell>
        <mxCell id="TdMQFVT1TNhZnt9DcQD6-139" value="" style="group;fontFamily=Mina;fontSource=https%3A%2F%2Ffonts.googleapis.com%2Fcss%3Ffamily%3DMina;" vertex="1" connectable="0" parent="1">
          <mxGeometry x="30" y="2090" width="560" height="40" as="geometry" />
        </mxCell>
        <mxCell id="TdMQFVT1TNhZnt9DcQD6-140" value="What are the basic procedures to develop MFCCs?" style="rounded=1;whiteSpace=wrap;html=1;fontSize=22;fillColor=#ffcc99;strokeColor=#000000;strokeWidth=2;fontFamily=Mina;arcSize=0;hachureGap=4;align=right;spacingRight=5;fontStyle=1;fontSource=https%3A%2F%2Ffonts.googleapis.com%2Fcss%3Ffamily%3DMina;" vertex="1" parent="TdMQFVT1TNhZnt9DcQD6-139">
          <mxGeometry x="20" width="540" height="40" as="geometry" />
        </mxCell>
        <mxCell id="TdMQFVT1TNhZnt9DcQD6-141" value="7" style="ellipse;whiteSpace=wrap;html=1;aspect=fixed;strokeWidth=2;fillColor=#a0522d;strokeColor=#000000;fontFamily=Mina;fontStyle=1;fontSize=20;spacingTop=3;fontColor=#ffffff;fontSource=https%3A%2F%2Ffonts.googleapis.com%2Fcss%3Ffamily%3DMina;" vertex="1" parent="TdMQFVT1TNhZnt9DcQD6-139">
          <mxGeometry width="40" height="40" as="geometry" />
        </mxCell>
        <mxCell id="TdMQFVT1TNhZnt9DcQD6-142" value="Convert from Hertz to Mel Scale" style="rounded=1;whiteSpace=wrap;html=1;hachureGap=4;fontFamily=Mina;strokeWidth=2;fillColor=#cdeb8b;strokeColor=#000000;fontSize=16;fontStyle=1;labelBorderColor=none;textShadow=0;labelBackgroundColor=none;align=left;spacing=7;verticalAlign=middle;fontSource=https%3A%2F%2Ffonts.googleapis.com%2Fcss%3Ffamily%3DMina;" vertex="1" parent="1">
          <mxGeometry x="71" y="2130" width="270" height="40" as="geometry" />
        </mxCell>
        <mxCell id="TdMQFVT1TNhZnt9DcQD6-143" value="Take logarithm of Mel representation of audio" style="rounded=1;whiteSpace=wrap;html=1;hachureGap=4;fontFamily=Mina;strokeWidth=2;fillColor=#cdeb8b;strokeColor=#000000;fontSize=16;fontStyle=1;labelBorderColor=none;textShadow=0;labelBackgroundColor=none;align=left;spacing=7;verticalAlign=middle;fontSource=https%3A%2F%2Ffonts.googleapis.com%2Fcss%3Ffamily%3DMina;" vertex="1" parent="1">
          <mxGeometry x="71" y="2170" width="360" height="40" as="geometry" />
        </mxCell>
        <mxCell id="TdMQFVT1TNhZnt9DcQD6-144" value="Take logarithmic magnitude and use Discrete Cosine Transformation" style="rounded=1;whiteSpace=wrap;html=1;hachureGap=4;fontFamily=Mina;strokeWidth=2;fillColor=#cdeb8b;strokeColor=#000000;fontSize=16;fontStyle=1;labelBorderColor=none;textShadow=0;labelBackgroundColor=none;align=left;spacing=7;verticalAlign=middle;fontSource=https%3A%2F%2Ffonts.googleapis.com%2Fcss%3Ffamily%3DMina;" vertex="1" parent="1">
          <mxGeometry x="72" y="2210" width="519" height="40" as="geometry" />
        </mxCell>
        <mxCell id="TdMQFVT1TNhZnt9DcQD6-145" value="This result creates a spectrum over Mel frequencies as opposed to time, thus creating MFCCs" style="rounded=1;whiteSpace=wrap;html=1;hachureGap=4;fontFamily=Mina;strokeWidth=2;fillColor=#cdeb8b;strokeColor=#000000;fontSize=16;fontStyle=1;labelBorderColor=none;textShadow=0;labelBackgroundColor=none;align=left;spacing=7;verticalAlign=middle;fontSource=https%3A%2F%2Ffonts.googleapis.com%2Fcss%3Ffamily%3DMina;" vertex="1" parent="1">
          <mxGeometry x="72.5" y="2250" width="519" height="50" as="geometry" />
        </mxCell>
        <mxCell id="TdMQFVT1TNhZnt9DcQD6-146" value="&lt;b&gt;Sketch A Conversational System Architecture&lt;/b&gt;" style="rounded=1;whiteSpace=wrap;html=1;fontSize=22;fillColor=#ffcc99;strokeColor=#000000;strokeWidth=2;fontFamily=Mina;arcSize=0;hachureGap=4;align=right;spacingRight=5;fontStyle=1;fontSource=https%3A%2F%2Ffonts.googleapis.com%2Fcss%3Ffamily%3DMina;" vertex="1" parent="1">
          <mxGeometry x="20" y="2360" width="490" height="40" as="geometry" />
        </mxCell>
        <mxCell id="TdMQFVT1TNhZnt9DcQD6-147" style="edgeStyle=orthogonalEdgeStyle;rounded=0;orthogonalLoop=1;jettySize=auto;html=1;strokeWidth=3;fontFamily=Mina;fontSource=https%3A%2F%2Ffonts.googleapis.com%2Fcss%3Ffamily%3DMina;" edge="1" parent="1" source="TdMQFVT1TNhZnt9DcQD6-149">
          <mxGeometry relative="1" as="geometry">
            <mxPoint x="77" y="2610" as="targetPoint" />
          </mxGeometry>
        </mxCell>
        <mxCell id="TdMQFVT1TNhZnt9DcQD6-148" value="&lt;b style=&quot;border-color: var(--border-color); font-size: 18px; background-color: rgb(251, 251, 251);&quot;&gt;Speech&lt;/b&gt;" style="edgeLabel;html=1;align=center;verticalAlign=middle;resizable=0;points=[];fontFamily=Mina;fontSource=https%3A%2F%2Ffonts.googleapis.com%2Fcss%3Ffamily%3DMina;" vertex="1" connectable="0" parent="TdMQFVT1TNhZnt9DcQD6-147">
          <mxGeometry x="0.2004" y="-3" relative="1" as="geometry">
            <mxPoint x="3" y="34" as="offset" />
          </mxGeometry>
        </mxCell>
        <mxCell id="TdMQFVT1TNhZnt9DcQD6-149" value="&lt;p style=&quot;font-size: 18px; line-height: 80%;&quot; data-pm-slice=&quot;1 1 []&quot;&gt;SPEECH&lt;/p&gt;&lt;p style=&quot;font-size: 18px; line-height: 80%;&quot; data-pm-slice=&quot;1 1 []&quot;&gt;&lt;span style=&quot;background-color: initial; font-size: 18px;&quot;&gt;SYNTHESIS&lt;/span&gt;&lt;/p&gt;" style="rounded=1;whiteSpace=wrap;html=1;strokeWidth=2;fillColor=#FFF2CC;strokeColor=#36393d;fontFamily=Mina;fontSize=18;fontStyle=1;fontSource=https%3A%2F%2Ffonts.googleapis.com%2Fcss%3Ffamily%3DMina;" vertex="1" parent="1">
          <mxGeometry x="152" y="2440" width="119" height="70" as="geometry" />
        </mxCell>
        <mxCell id="TdMQFVT1TNhZnt9DcQD6-150" value="&lt;p data-pm-slice=&quot;1 1 []&quot; style=&quot;line-height: 80%;&quot;&gt;LANGUAGE&lt;br&gt;&lt;/p&gt;&lt;p style=&quot;line-height: 80%;&quot;&gt;GENERATION&lt;/p&gt;" style="rounded=1;whiteSpace=wrap;html=1;strokeWidth=2;fillColor=#E1D5E7;strokeColor=#36393d;fontFamily=Mina;fontSize=18;fontStyle=1;fontSource=https%3A%2F%2Ffonts.googleapis.com%2Fcss%3Ffamily%3DMina;" vertex="1" parent="1">
          <mxGeometry x="442" y="2440" width="119" height="70" as="geometry" />
        </mxCell>
        <mxCell id="TdMQFVT1TNhZnt9DcQD6-151" style="edgeStyle=orthogonalEdgeStyle;rounded=0;orthogonalLoop=1;jettySize=auto;html=1;strokeWidth=3;fontFamily=Mina;fontSource=https%3A%2F%2Ffonts.googleapis.com%2Fcss%3Ffamily%3DMina;" edge="1" parent="1" source="TdMQFVT1TNhZnt9DcQD6-150" target="TdMQFVT1TNhZnt9DcQD6-149">
          <mxGeometry relative="1" as="geometry">
            <Array as="points">
              <mxPoint x="242" y="2475" />
              <mxPoint x="242" y="2475" />
            </Array>
          </mxGeometry>
        </mxCell>
        <mxCell id="TdMQFVT1TNhZnt9DcQD6-152" value="&lt;font style=&quot;font-size: 17px;&quot;&gt;&lt;b style=&quot;font-size: 17px;&quot;&gt;Sentence&lt;/b&gt;&lt;/font&gt;" style="edgeLabel;html=1;align=center;verticalAlign=middle;resizable=0;points=[];fontSize=17;fontFamily=Mina;fontSource=https%3A%2F%2Ffonts.googleapis.com%2Fcss%3Ffamily%3DMina;" vertex="1" connectable="0" parent="TdMQFVT1TNhZnt9DcQD6-151">
          <mxGeometry x="0.0148" y="1" relative="1" as="geometry">
            <mxPoint x="1" y="-1" as="offset" />
          </mxGeometry>
        </mxCell>
        <mxCell id="TdMQFVT1TNhZnt9DcQD6-153" style="edgeStyle=orthogonalEdgeStyle;rounded=0;orthogonalLoop=1;jettySize=auto;html=1;strokeWidth=3;fontFamily=Mina;fontSource=https%3A%2F%2Ffonts.googleapis.com%2Fcss%3Ffamily%3DMina;" edge="1" parent="1" source="TdMQFVT1TNhZnt9DcQD6-156" target="TdMQFVT1TNhZnt9DcQD6-150">
          <mxGeometry relative="1" as="geometry" />
        </mxCell>
        <mxCell id="TdMQFVT1TNhZnt9DcQD6-154" style="edgeStyle=orthogonalEdgeStyle;rounded=0;orthogonalLoop=1;jettySize=auto;html=1;strokeWidth=3;fontFamily=Mina;fontSource=https%3A%2F%2Ffonts.googleapis.com%2Fcss%3Ffamily%3DMina;" edge="1" parent="1" source="TdMQFVT1TNhZnt9DcQD6-156">
          <mxGeometry relative="1" as="geometry">
            <mxPoint x="192" y="2635" as="targetPoint" />
          </mxGeometry>
        </mxCell>
        <mxCell id="TdMQFVT1TNhZnt9DcQD6-155" value="&lt;font style=&quot;&quot; size=&quot;1&quot;&gt;&lt;b style=&quot;font-size: 16px;&quot;&gt;Graphs &amp;amp; Tables&lt;/b&gt;&lt;/font&gt;" style="edgeLabel;html=1;align=center;verticalAlign=middle;resizable=0;points=[];fontFamily=Mina;fontSource=https%3A%2F%2Ffonts.googleapis.com%2Fcss%3Ffamily%3DMina;" vertex="1" connectable="0" parent="TdMQFVT1TNhZnt9DcQD6-154">
          <mxGeometry x="0.6381" relative="1" as="geometry">
            <mxPoint x="54" y="-2" as="offset" />
          </mxGeometry>
        </mxCell>
        <mxCell id="TdMQFVT1TNhZnt9DcQD6-156" value="&lt;p data-pm-slice=&quot;1 1 []&quot; style=&quot;line-height: 80%;&quot;&gt;DIALOGUE&lt;/p&gt;&lt;p data-pm-slice=&quot;1 1 []&quot; style=&quot;line-height: 80%;&quot;&gt;MANAGEMENT&lt;/p&gt;" style="rounded=1;whiteSpace=wrap;html=1;strokeWidth=2;fillColor=#F8CECC;strokeColor=#36393d;fontFamily=Mina;fontSize=18;fontStyle=1;fontSource=https%3A%2F%2Ffonts.googleapis.com%2Fcss%3Ffamily%3DMina;" vertex="1" parent="1">
          <mxGeometry x="436.5" y="2600" width="130" height="70" as="geometry" />
        </mxCell>
        <mxCell id="TdMQFVT1TNhZnt9DcQD6-157" style="edgeStyle=orthogonalEdgeStyle;rounded=0;orthogonalLoop=1;jettySize=auto;html=1;strokeWidth=3;startArrow=classic;startFill=1;fontFamily=Mina;fontSource=https%3A%2F%2Ffonts.googleapis.com%2Fcss%3Ffamily%3DMina;" edge="1" parent="1" source="TdMQFVT1TNhZnt9DcQD6-160" target="TdMQFVT1TNhZnt9DcQD6-156">
          <mxGeometry relative="1" as="geometry">
            <Array as="points">
              <mxPoint x="379" y="2650" />
            </Array>
          </mxGeometry>
        </mxCell>
        <mxCell id="TdMQFVT1TNhZnt9DcQD6-158" style="edgeStyle=orthogonalEdgeStyle;rounded=0;orthogonalLoop=1;jettySize=auto;html=1;strokeWidth=3;fontFamily=Mina;fontSource=https%3A%2F%2Ffonts.googleapis.com%2Fcss%3Ffamily%3DMina;" edge="1" parent="1" source="TdMQFVT1TNhZnt9DcQD6-160" target="TdMQFVT1TNhZnt9DcQD6-163">
          <mxGeometry relative="1" as="geometry">
            <Array as="points">
              <mxPoint x="379" y="2850" />
            </Array>
          </mxGeometry>
        </mxCell>
        <mxCell id="TdMQFVT1TNhZnt9DcQD6-159" style="edgeStyle=orthogonalEdgeStyle;rounded=0;orthogonalLoop=1;jettySize=auto;html=1;strokeWidth=3;fontFamily=Mina;fontSource=https%3A%2F%2Ffonts.googleapis.com%2Fcss%3Ffamily%3DMina;" edge="1" parent="1" source="TdMQFVT1TNhZnt9DcQD6-160" target="TdMQFVT1TNhZnt9DcQD6-166">
          <mxGeometry relative="1" as="geometry" />
        </mxCell>
        <mxCell id="TdMQFVT1TNhZnt9DcQD6-160" value="&lt;p data-pm-slice=&quot;1 1 []&quot; style=&quot;line-height: 80%;&quot;&gt;DISCOURSE&lt;/p&gt;&lt;p data-pm-slice=&quot;1 1 []&quot; style=&quot;line-height: 80%;&quot;&gt;CONTEXT&lt;/p&gt;" style="rounded=1;whiteSpace=wrap;html=1;strokeWidth=2;fillColor=#E1D5E7;strokeColor=#36393d;fontFamily=Mina;fontSize=18;fontStyle=1;fontSource=https%3A%2F%2Ffonts.googleapis.com%2Fcss%3Ffamily%3DMina;" vertex="1" parent="1">
          <mxGeometry x="319" y="2710" width="119" height="70" as="geometry" />
        </mxCell>
        <mxCell id="TdMQFVT1TNhZnt9DcQD6-161" style="edgeStyle=orthogonalEdgeStyle;rounded=0;orthogonalLoop=1;jettySize=auto;html=1;strokeWidth=3;fontFamily=Mina;fontSource=https%3A%2F%2Ffonts.googleapis.com%2Fcss%3Ffamily%3DMina;" edge="1" parent="1" source="TdMQFVT1TNhZnt9DcQD6-163" target="TdMQFVT1TNhZnt9DcQD6-168">
          <mxGeometry relative="1" as="geometry">
            <Array as="points">
              <mxPoint x="624" y="2855" />
            </Array>
          </mxGeometry>
        </mxCell>
        <mxCell id="TdMQFVT1TNhZnt9DcQD6-162" value="&lt;b&gt;&lt;font style=&quot;font-size: 17px;&quot;&gt;Meaning&lt;/font&gt;&lt;/b&gt;" style="edgeLabel;html=1;align=center;verticalAlign=middle;resizable=0;points=[];fontFamily=Mina;fontSource=https%3A%2F%2Ffonts.googleapis.com%2Fcss%3Ffamily%3DMina;" vertex="1" connectable="0" parent="TdMQFVT1TNhZnt9DcQD6-161">
          <mxGeometry x="0.3634" y="-1" relative="1" as="geometry">
            <mxPoint as="offset" />
          </mxGeometry>
        </mxCell>
        <mxCell id="TdMQFVT1TNhZnt9DcQD6-163" value="&lt;p data-pm-slice=&quot;1 1 []&quot; style=&quot;line-height: 80%;&quot;&gt;LANGUAGE&lt;/p&gt;&lt;p data-pm-slice=&quot;1 1 []&quot; style=&quot;line-height: 80%;&quot;&gt;UNDERSTANDING&lt;/p&gt;" style="rounded=1;whiteSpace=wrap;html=1;strokeWidth=2;fillColor=#E1D5E7;strokeColor=#36393d;fontFamily=Mina;fontSize=18;fontStyle=1;fontSource=https%3A%2F%2Ffonts.googleapis.com%2Fcss%3Ffamily%3DMina;" vertex="1" parent="1">
          <mxGeometry x="442" y="2820" width="160" height="70" as="geometry" />
        </mxCell>
        <mxCell id="TdMQFVT1TNhZnt9DcQD6-164" style="edgeStyle=orthogonalEdgeStyle;rounded=0;orthogonalLoop=1;jettySize=auto;html=1;strokeWidth=3;fontFamily=Mina;fontSource=https%3A%2F%2Ffonts.googleapis.com%2Fcss%3Ffamily%3DMina;" edge="1" parent="1" source="TdMQFVT1TNhZnt9DcQD6-166" target="TdMQFVT1TNhZnt9DcQD6-163">
          <mxGeometry relative="1" as="geometry">
            <Array as="points">
              <mxPoint x="352" y="2870" />
              <mxPoint x="352" y="2870" />
            </Array>
          </mxGeometry>
        </mxCell>
        <mxCell id="TdMQFVT1TNhZnt9DcQD6-165" value="Words" style="edgeLabel;html=1;align=center;verticalAlign=middle;resizable=0;points=[];fontSize=16;fontStyle=1;fontFamily=Mina;fontSource=https%3A%2F%2Ffonts.googleapis.com%2Fcss%3Ffamily%3DMina;" vertex="1" connectable="0" parent="TdMQFVT1TNhZnt9DcQD6-164">
          <mxGeometry x="0.028" y="4" relative="1" as="geometry">
            <mxPoint x="-18" y="4" as="offset" />
          </mxGeometry>
        </mxCell>
        <mxCell id="TdMQFVT1TNhZnt9DcQD6-166" value="&lt;p style=&quot;font-size: 18px; line-height: 80%;&quot; data-pm-slice=&quot;1 1 []&quot;&gt;SPEECH&lt;/p&gt;&lt;p data-pm-slice=&quot;1 1 []&quot;&gt;RECOGNITION&lt;/p&gt;" style="rounded=1;whiteSpace=wrap;html=1;strokeWidth=2;fillColor=#FFF2CC;strokeColor=#36393d;fontFamily=Mina;fontSize=18;fontStyle=1;fontSource=https%3A%2F%2Ffonts.googleapis.com%2Fcss%3Ffamily%3DMina;" vertex="1" parent="1">
          <mxGeometry x="122" y="2840" width="140" height="70" as="geometry" />
        </mxCell>
        <mxCell id="TdMQFVT1TNhZnt9DcQD6-167" style="edgeStyle=orthogonalEdgeStyle;rounded=0;orthogonalLoop=1;jettySize=auto;html=1;strokeWidth=3;fontFamily=Mina;fontSource=https%3A%2F%2Ffonts.googleapis.com%2Fcss%3Ffamily%3DMina;" edge="1" parent="1" source="TdMQFVT1TNhZnt9DcQD6-168" target="TdMQFVT1TNhZnt9DcQD6-156">
          <mxGeometry relative="1" as="geometry">
            <Array as="points">
              <mxPoint x="622" y="2635" />
            </Array>
          </mxGeometry>
        </mxCell>
        <mxCell id="TdMQFVT1TNhZnt9DcQD6-168" value="&lt;div style=&quot;font-size: 17px;&quot;&gt;Meaning&lt;/div&gt;&lt;div style=&quot;font-size: 17px;&quot;&gt;Representation&lt;/div&gt;" style="rounded=1;whiteSpace=wrap;html=1;strokeWidth=2;fillColor=#cdeb8b;strokeColor=#36393d;arcSize=50;fontFamily=Mina;fontStyle=1;fontSize=17;fontSource=https%3A%2F%2Ffonts.googleapis.com%2Fcss%3Ffamily%3DMina;" vertex="1" parent="1">
          <mxGeometry x="556.4499999999999" y="2710" width="135.55" height="60" as="geometry" />
        </mxCell>
        <mxCell id="TdMQFVT1TNhZnt9DcQD6-169" style="edgeStyle=orthogonalEdgeStyle;rounded=0;orthogonalLoop=1;jettySize=auto;html=1;strokeWidth=3;startArrow=classic;startFill=1;fontFamily=Mina;fontSource=https%3A%2F%2Ffonts.googleapis.com%2Fcss%3Ffamily%3DMina;" edge="1" parent="1" source="TdMQFVT1TNhZnt9DcQD6-170" target="TdMQFVT1TNhZnt9DcQD6-156">
          <mxGeometry relative="1" as="geometry">
            <Array as="points">
              <mxPoint x="552" y="2560" />
            </Array>
          </mxGeometry>
        </mxCell>
        <mxCell id="TdMQFVT1TNhZnt9DcQD6-170" value="" style="verticalLabelPosition=bottom;aspect=fixed;html=1;shape=mxgraph.salesforce.data;fontFamily=Mina;fontSource=https%3A%2F%2Ffonts.googleapis.com%2Fcss%3Ffamily%3DMina;" vertex="1" parent="1">
          <mxGeometry x="602" y="2520" width="64.8" height="80" as="geometry" />
        </mxCell>
        <mxCell id="TdMQFVT1TNhZnt9DcQD6-171" value="&lt;font style=&quot;font-size: 18px;&quot;&gt;&lt;b&gt;Database&lt;/b&gt;&lt;/font&gt;" style="text;html=1;strokeColor=none;fillColor=none;align=center;verticalAlign=middle;whiteSpace=wrap;rounded=0;fontFamily=Mina;fontSource=https%3A%2F%2Ffonts.googleapis.com%2Fcss%3Ffamily%3DMina;" vertex="1" parent="1">
          <mxGeometry x="606.8" y="2490" width="60" height="30" as="geometry" />
        </mxCell>
        <mxCell id="TdMQFVT1TNhZnt9DcQD6-172" style="edgeStyle=orthogonalEdgeStyle;rounded=0;orthogonalLoop=1;jettySize=auto;html=1;strokeWidth=3;fontFamily=Mina;fontSource=https%3A%2F%2Ffonts.googleapis.com%2Fcss%3Ffamily%3DMina;" edge="1" parent="1" source="TdMQFVT1TNhZnt9DcQD6-174" target="TdMQFVT1TNhZnt9DcQD6-166">
          <mxGeometry relative="1" as="geometry">
            <Array as="points">
              <mxPoint x="77" y="2875" />
            </Array>
          </mxGeometry>
        </mxCell>
        <mxCell id="TdMQFVT1TNhZnt9DcQD6-173" value="&lt;b style=&quot;border-color: var(--border-color); font-size: 18px; background-color: rgb(251, 251, 251);&quot;&gt;Speech&lt;/b&gt;" style="edgeLabel;html=1;align=center;verticalAlign=middle;resizable=0;points=[];fontFamily=Mina;fontSource=https%3A%2F%2Ffonts.googleapis.com%2Fcss%3Ffamily%3DMina;" vertex="1" connectable="0" parent="TdMQFVT1TNhZnt9DcQD6-172">
          <mxGeometry x="-0.6717" y="1" relative="1" as="geometry">
            <mxPoint as="offset" />
          </mxGeometry>
        </mxCell>
        <mxCell id="TdMQFVT1TNhZnt9DcQD6-174" value="" style="shape=umlActor;verticalLabelPosition=bottom;verticalAlign=top;html=1;outlineConnect=0;strokeWidth=6;fontFamily=Mina;fontSize=23;strokeColor=#4285f4;labelBorderColor=none;sketch=1;curveFitting=1;jiggle=2;fontSource=https%3A%2F%2Ffonts.googleapis.com%2Fcss%3Ffamily%3DMina;" vertex="1" parent="1">
          <mxGeometry x="42" y="2624" width="70" height="120" as="geometry" />
        </mxCell>
        <mxCell id="TdMQFVT1TNhZnt9DcQD6-175" value="" style="editableCssRules=.*;html=1;shape=image;verticalLabelPosition=bottom;labelBackgroundColor=#ffffff;verticalAlign=top;aspect=fixed;imageAspect=0;image=data:image/svg+xml,PHN2ZyB4bWxucz0iaHR0cDovL3d3dy53My5vcmcvMjAwMC9zdmciIHhtbG5zOnY9Imh0dHBzOi8vdmVjdGEuaW8vbmFubyIgd2lkdGg9IjIwLjAwMDQ2MzQ4NTcxNzc3MyIgaGVpZ2h0PSIxNi42MzE1MTU1MDI5Mjk2ODgiIHZpZXdCb3g9IjAgMC4wMDAyNDE0MDk2NTI1MTcxNzcxNiAyMC4wMDA0NjM0ODU3MTc3NzMgMTYuNjMxNTE1NTAyOTI5Njg4Ij4mI3hhOwk8c3R5bGUgdHlwZT0idGV4dC9jc3MiPi5zdDAgeyBmaWxsOiByZ2IoMTAyLCAxNTcsIDI0Nik7IH0gLnN0MSB7IGZpbGw6IHJnYig2NiwgMTMzLCAyNDQpOyB9IDwvc3R5bGU+JiN4YTsJPHBhdGggY2xhc3M9InN0MCIgZD0iTS4wMSAzLjMwNmg2LjY0djEuNjdILjAxem0tLjAxIDEwaDAgOS4xN3YtMS42N0gwem0wLTQuMTdoNC4xOEgxMGwtMS42Ny0xLjY2SDIuNTEgMHoiLz4mI3hhOwk8cGF0aCBjbGFzcz0ic3QxIiBkPSJNMTAgNS4zODZhLjQyLjQyIDAgMCAxIC40Mi0uMzYuNDEuNDEgMCAwIDEgLjQxLjM2djkuMThhMi4wOSAyLjA5IDAgMCAwIDIuNjEgMiAyLjE2IDIuMTYgMCAwIDAgMS41Ni0yLjExVjIuMDY2YS40LjQgMCAwIDEgLjE5LS40LjQxLjQxIDAgMCAxIC40NSAwIC40LjQgMCAwIDEgLjE5LjR2OS4xNmEyLjA3IDIuMDcgMCAwIDAgLjgxIDEuNjQgMiAyIDAgMCAwIDEuOC4zNyAyLjE2IDIuMTYgMCAwIDAgMS41Ni0yLjEydi0yLjhoLTEuNjd2Mi45MmEuNC40IDAgMCAxLS4xOS40LjQxLjQxIDAgMCAxLS40NSAwIC40LjQgMCAwIDEtLjE5LS40di05LjE3YTIuMDkgMi4wOSAwIDAgMC0yLjYxLTIgMi4xNiAyLjE2IDAgMCAwLTEuNTYgMi4xM3YxMi4zN2EuNC40IDAgMCAxLS4xOS40LjQxLjQxIDAgMCAxLS40NSAwIC40LjQgMCAwIDEtLjE5LS40di05LjE3YTIuMDcgMi4wNyAwIDAgMC00LjExLS4zNiAyLjQgMi40IDAgMCAwLS4wNS40NnYyTDEwIDkuMTM2eiIvPiYjeGE7PC9zdmc+;imageBorder=none;imageBackground=none;fontFamily=Mina;fontSource=https%3A%2F%2Ffonts.googleapis.com%2Fcss%3Ffamily%3DMina;" vertex="1" parent="1">
          <mxGeometry x="122" y="2612" width="54.12" height="46" as="geometry" />
        </mxCell>
        <mxCell id="TdMQFVT1TNhZnt9DcQD6-176" value="" style="group;fontFamily=Mina;fontSource=https%3A%2F%2Ffonts.googleapis.com%2Fcss%3Ffamily%3DMina;" vertex="1" connectable="0" parent="1">
          <mxGeometry x="94" y="3010" width="180" height="40" as="geometry" />
        </mxCell>
        <mxCell id="TdMQFVT1TNhZnt9DcQD6-177" value="Consonants&amp;nbsp;" style="rounded=1;whiteSpace=wrap;html=1;fontSize=22;fillColor=#0050ef;strokeColor=#000000;strokeWidth=2;fontFamily=Mina;arcSize=0;hachureGap=4;align=center;spacingRight=0;fontStyle=1;fontColor=#ffffff;fontSource=https%3A%2F%2Ffonts.googleapis.com%2Fcss%3Ffamily%3DMina;" vertex="1" parent="TdMQFVT1TNhZnt9DcQD6-176">
          <mxGeometry width="140" height="40" as="geometry" />
        </mxCell>
        <mxCell id="TdMQFVT1TNhZnt9DcQD6-178" value="" style="group;fontFamily=Mina;fontSource=https%3A%2F%2Ffonts.googleapis.com%2Fcss%3Ffamily%3DMina;" vertex="1" connectable="0" parent="1">
          <mxGeometry x="94" y="3060" width="680" height="40" as="geometry" />
        </mxCell>
        <mxCell id="TdMQFVT1TNhZnt9DcQD6-179" value="&lt;b&gt;Vowels&amp;nbsp;&lt;/b&gt;" style="rounded=1;whiteSpace=wrap;html=1;fontSize=22;fillColor=#e51400;strokeColor=#000000;strokeWidth=2;fontFamily=Mina;arcSize=0;hachureGap=4;align=center;spacingRight=0;fontStyle=1;fontColor=#ffffff;fontSource=https%3A%2F%2Ffonts.googleapis.com%2Fcss%3Ffamily%3DMina;" vertex="1" parent="TdMQFVT1TNhZnt9DcQD6-178">
          <mxGeometry width="140" height="40" as="geometry" />
        </mxCell>
        <mxCell id="TdMQFVT1TNhZnt9DcQD6-180" value="&lt;b&gt;lip position, tongue height, tongue advancement.&lt;/b&gt;" style="rounded=1;whiteSpace=wrap;html=1;fontSize=22;fillColor=#ffcccc;strokeColor=#000000;strokeWidth=2;fontFamily=Mina;arcSize=0;hachureGap=4;align=left;spacingRight=5;fontStyle=1;spacingLeft=5;fontSource=https%3A%2F%2Ffonts.googleapis.com%2Fcss%3Ffamily%3DMina;" vertex="1" parent="TdMQFVT1TNhZnt9DcQD6-178">
          <mxGeometry x="135" width="545" height="40" as="geometry" />
        </mxCell>
        <mxCell id="TdMQFVT1TNhZnt9DcQD6-181" value="" style="group;fontFamily=Mina;fontSource=https%3A%2F%2Ffonts.googleapis.com%2Fcss%3Ffamily%3DMina;" vertex="1" connectable="0" parent="1">
          <mxGeometry x="54" y="2940" width="703" height="40" as="geometry" />
        </mxCell>
        <mxCell id="TdMQFVT1TNhZnt9DcQD6-182" value="&lt;b&gt;What are the different characteristics of Consonants and Vowels&lt;/b&gt;" style="rounded=1;whiteSpace=wrap;html=1;fontSize=22;fillColor=#cdeb8b;strokeColor=#000000;strokeWidth=2;fontFamily=Mina;arcSize=0;hachureGap=4;align=right;spacingRight=5;fontStyle=1;fontSource=https%3A%2F%2Ffonts.googleapis.com%2Fcss%3Ffamily%3DMina;" vertex="1" parent="TdMQFVT1TNhZnt9DcQD6-181">
          <mxGeometry x="20" width="683.14" height="40" as="geometry" />
        </mxCell>
        <mxCell id="TdMQFVT1TNhZnt9DcQD6-183" value="9" style="ellipse;whiteSpace=wrap;html=1;aspect=fixed;strokeWidth=2;fillColor=#008a00;strokeColor=#000000;fontFamily=Mina;fontStyle=1;fontSize=20;spacingTop=3;fontColor=#ffffff;fontSource=https%3A%2F%2Ffonts.googleapis.com%2Fcss%3Ffamily%3DMina;" vertex="1" parent="TdMQFVT1TNhZnt9DcQD6-181">
          <mxGeometry width="40" height="40" as="geometry" />
        </mxCell>
        <mxCell id="TdMQFVT1TNhZnt9DcQD6-184" value="&lt;b&gt;Place of articulation, Manner of articulation, Voicing.&lt;/b&gt;" style="rounded=1;whiteSpace=wrap;html=1;fontSize=22;fillColor=#cce5ff;strokeColor=#000000;strokeWidth=2;fontFamily=Mina;arcSize=0;hachureGap=4;align=left;spacingRight=5;fontStyle=1;spacingLeft=5;fontSource=https%3A%2F%2Ffonts.googleapis.com%2Fcss%3Ffamily%3DMina;" vertex="1" parent="1">
          <mxGeometry x="229" y="3010" width="545" height="40" as="geometry" />
        </mxCell>
        <mxCell id="TdMQFVT1TNhZnt9DcQD6-187" value="&lt;p style=&quot;text-align: justify; line-height: 115%; direction: ltr; font-size: 15px;&quot; class=&quot;MsoNormal&quot;&gt;`F_1 = \frac{c}{\lambda_1} = \frac{c}{4L} = \frac{35,000}{4 \cdot 17.5} = 500 \text{Hz}`&lt;/p&gt;" style="rounded=1;whiteSpace=wrap;html=1;strokeWidth=2;fillColor=#cdeb8b;strokeColor=#36393d;arcSize=10;fontFamily=Mina;fontStyle=1;fontSize=15;fontSource=https%3A%2F%2Ffonts.googleapis.com%2Fcss%3Ffamily%3DMina;" vertex="1" parent="1">
          <mxGeometry x="30" y="3250" width="312.5" height="60" as="geometry" />
        </mxCell>
        <mxCell id="TdMQFVT1TNhZnt9DcQD6-188" value="&lt;p style=&quot;text-align: justify; line-height: 115%; direction: ltr; font-size: 15px;&quot; class=&quot;MsoNormal&quot;&gt;`F_2 = \frac{c}{\lambda_2} = \frac{c}{\frac{4}{3}L} = \frac{3c}{4L} = \frac{3 \cdot 35000}{4 \cdot 17.5} = 1500 \text{Hz}`&lt;/p&gt;" style="rounded=1;whiteSpace=wrap;html=1;strokeWidth=2;fillColor=#cdeb8b;strokeColor=#36393d;arcSize=17;fontFamily=Mina;fontStyle=1;fontSize=15;fontSource=https%3A%2F%2Ffonts.googleapis.com%2Fcss%3Ffamily%3DMina;" vertex="1" parent="1">
          <mxGeometry x="400.4" y="3250" width="389.6" height="60" as="geometry" />
        </mxCell>
        <mxCell id="TdMQFVT1TNhZnt9DcQD6-189" value="&lt;p class=&quot;MsoNormal&quot; style=&quot;text-align:justify;line-height:115%;direction:ltr;&lt;br/&gt;unicode-bidi:embed&quot;&gt;`F_3 = \frac{c}{\lambda_3} = \frac{c}{\frac{4}{5}L} = \frac{5c}{4L} = \frac{5 \cdot 35000}{4 \cdot 17.5} = 2500 \text{Hz}`&lt;/p&gt;" style="rounded=1;whiteSpace=wrap;html=1;strokeWidth=2;fillColor=#cdeb8b;strokeColor=#36393d;arcSize=12;fontFamily=Mina;fontStyle=1;fontSize=14;fontSource=https%3A%2F%2Ffonts.googleapis.com%2Fcss%3Ffamily%3DMina;" vertex="1" parent="1">
          <mxGeometry x="30" y="3330" width="347.5" height="50" as="geometry" />
        </mxCell>
        <mxCell id="TdMQFVT1TNhZnt9DcQD6-190" value="&lt;p class=&quot;MsoNormal&quot; style=&quot;text-align:justify;line-height:115%;direction:ltr;&lt;br/&gt;unicode-bidi:embed&quot;&gt;So we expect a neutral vowel to have `3` resonances at `500`, `1500`, and `2500` Hz.&lt;/p&gt;&lt;p class=&quot;MsoNormal&quot; style=&quot;text-align:justify;line-height:115%;direction:ltr;&lt;br/&gt;unicode-bidi:embed&quot;&gt;These vowel resonances are called Formants&lt;br&gt;&lt;/p&gt;" style="rounded=1;whiteSpace=wrap;html=1;strokeWidth=2;fillColor=#cdeb8b;strokeColor=#36393d;arcSize=15;fontFamily=Mina;fontStyle=1;fontSize=14;fontSource=https%3A%2F%2Ffonts.googleapis.com%2Fcss%3Ffamily%3DMina;" vertex="1" parent="1">
          <mxGeometry x="30" y="3400" width="540" height="60" as="geometry" />
        </mxCell>
        <mxCell id="TdMQFVT1TNhZnt9DcQD6-191" value="&lt;font&gt;&lt;b&gt;Parameters&lt;/b&gt;&lt;/font&gt;" style="rounded=0;whiteSpace=wrap;html=1;strokeWidth=2;fillColor=#0050ef;strokeColor=#001DBC;fontColor=#ffffff;container=0;fontSize=28;fontFamily=Mina;fontSource=https%3A%2F%2Ffonts.googleapis.com%2Fcss%3Ffamily%3DMina;" vertex="1" parent="1">
          <mxGeometry x="141.4999999999999" y="1290" width="169.89" height="48.63" as="geometry" />
        </mxCell>
        <mxCell id="TdMQFVT1TNhZnt9DcQD6-192" value="&lt;div&gt;&lt;font&gt;Speaking Mode:&lt;/font&gt;&lt;/div&gt;" style="rounded=0;whiteSpace=wrap;html=1;strokeWidth=2;fillColor=#cce5ff;strokeColor=#36393d;container=0;fontStyle=1;fontSize=20;fontFamily=Mina;fontSource=https%3A%2F%2Ffonts.googleapis.com%2Fcss%3Ffamily%3DMina;" vertex="1" parent="1">
          <mxGeometry x="141.4999999999999" y="1338.63" width="169.89" height="36.82" as="geometry" />
        </mxCell>
        <mxCell id="TdMQFVT1TNhZnt9DcQD6-193" value="&lt;div&gt;&lt;font&gt;&lt;b&gt;Range&lt;/b&gt;&lt;/font&gt;&lt;/div&gt;" style="rounded=0;whiteSpace=wrap;html=1;strokeWidth=2;fillColor=#008a00;strokeColor=#005700;fontColor=#ffffff;container=0;fontSize=28;fontFamily=Mina;fontSource=https%3A%2F%2Ffonts.googleapis.com%2Fcss%3Ffamily%3DMina;" vertex="1" parent="1">
          <mxGeometry x="311.39" y="1290" width="400" height="48.63" as="geometry" />
        </mxCell>
        <mxCell id="TdMQFVT1TNhZnt9DcQD6-194" value="&lt;div&gt;&lt;font&gt;Isolated word to continuous speech&lt;/font&gt;&lt;/div&gt;" style="rounded=0;whiteSpace=wrap;html=1;strokeWidth=2;fillColor=#cdeb8b;strokeColor=#36393d;container=0;fontSize=20;fontStyle=1;align=left;spacingLeft=3;fontFamily=Mina;fontSource=https%3A%2F%2Ffonts.googleapis.com%2Fcss%3Ffamily%3DMina;" vertex="1" parent="1">
          <mxGeometry x="311.39" y="1338.63" width="400" height="36.82" as="geometry" />
        </mxCell>
        <mxCell id="TdMQFVT1TNhZnt9DcQD6-195" value="&lt;div&gt;&lt;font&gt;Speaking Style:&lt;/font&gt;&lt;/div&gt;" style="rounded=0;whiteSpace=wrap;html=1;strokeWidth=2;fillColor=#cce5ff;strokeColor=#36393d;container=0;fontStyle=1;fontSize=20;fontFamily=Mina;fontSource=https%3A%2F%2Ffonts.googleapis.com%2Fcss%3Ffamily%3DMina;" vertex="1" parent="1">
          <mxGeometry x="141.4999999999999" y="1375.45" width="169.89" height="36.82" as="geometry" />
        </mxCell>
        <mxCell id="TdMQFVT1TNhZnt9DcQD6-196" value="&lt;div&gt;&lt;font&gt;Enrollment:&lt;/font&gt;&lt;/div&gt;" style="rounded=0;whiteSpace=wrap;html=1;strokeWidth=2;fillColor=#cce5ff;strokeColor=#36393d;container=0;fontStyle=1;fontSize=20;fontFamily=Mina;fontSource=https%3A%2F%2Ffonts.googleapis.com%2Fcss%3Ffamily%3DMina;" vertex="1" parent="1">
          <mxGeometry x="141.4999999999999" y="1412.27" width="169.89" height="36.82" as="geometry" />
        </mxCell>
        <mxCell id="TdMQFVT1TNhZnt9DcQD6-197" value="&lt;font&gt;Vocabulary:&lt;/font&gt;" style="rounded=0;whiteSpace=wrap;html=1;strokeWidth=2;fillColor=#cce5ff;strokeColor=#36393d;container=0;fontStyle=1;fontSize=20;fontFamily=Mina;fontSource=https%3A%2F%2Ffonts.googleapis.com%2Fcss%3Ffamily%3DMina;" vertex="1" parent="1">
          <mxGeometry x="141.4999999999999" y="1449.0900000000001" width="169.89" height="36.82" as="geometry" />
        </mxCell>
        <mxCell id="TdMQFVT1TNhZnt9DcQD6-198" value="&lt;div&gt;&lt;font&gt;Language Model:&lt;/font&gt;&lt;/div&gt;" style="rounded=0;whiteSpace=wrap;html=1;strokeWidth=2;fillColor=#cce5ff;strokeColor=#36393d;container=0;fontStyle=1;fontSize=20;fontFamily=Mina;fontSource=https%3A%2F%2Ffonts.googleapis.com%2Fcss%3Ffamily%3DMina;" vertex="1" parent="1">
          <mxGeometry x="141.4999999999999" y="1485.9099999999999" width="169.89" height="36.82" as="geometry" />
        </mxCell>
        <mxCell id="TdMQFVT1TNhZnt9DcQD6-199" value="&lt;div&gt;&lt;font&gt;Perplexity:&lt;/font&gt;&lt;/div&gt;" style="rounded=0;whiteSpace=wrap;html=1;strokeWidth=2;fillColor=#cce5ff;strokeColor=#36393d;container=0;fontStyle=1;fontSize=20;fontFamily=Mina;fontSource=https%3A%2F%2Ffonts.googleapis.com%2Fcss%3Ffamily%3DMina;" vertex="1" parent="1">
          <mxGeometry x="141.4999999999999" y="1522.72" width="169.89" height="36.82" as="geometry" />
        </mxCell>
        <mxCell id="TdMQFVT1TNhZnt9DcQD6-200" value="&lt;div&gt;&lt;font&gt;SNR:&lt;/font&gt;&lt;/div&gt;" style="rounded=0;whiteSpace=wrap;html=1;strokeWidth=2;fillColor=#cce5ff;strokeColor=#36393d;container=0;fontStyle=1;fontSize=20;fontFamily=Mina;fontSource=https%3A%2F%2Ffonts.googleapis.com%2Fcss%3Ffamily%3DMina;" vertex="1" parent="1">
          <mxGeometry x="141.4999999999999" y="1559.54" width="169.89" height="36.82" as="geometry" />
        </mxCell>
        <mxCell id="TdMQFVT1TNhZnt9DcQD6-201" value="&lt;font&gt;Transducer:&lt;/font&gt;" style="rounded=0;whiteSpace=wrap;html=1;strokeWidth=2;fillColor=#cce5ff;strokeColor=#36393d;container=0;fontStyle=1;fontSize=20;fontFamily=Mina;fontSource=https%3A%2F%2Ffonts.googleapis.com%2Fcss%3Ffamily%3DMina;" vertex="1" parent="1">
          <mxGeometry x="141.4999999999999" y="1596.3600000000001" width="169.89" height="36.82" as="geometry" />
        </mxCell>
        <mxCell id="TdMQFVT1TNhZnt9DcQD6-202" value="&lt;div&gt;&lt;font&gt;Read speech to spontaneous speech&lt;/font&gt;&lt;/div&gt;" style="rounded=0;whiteSpace=wrap;html=1;strokeWidth=2;fillColor=#cdeb8b;strokeColor=#36393d;container=0;fontSize=20;fontStyle=1;align=left;spacingLeft=3;fontFamily=Mina;fontSource=https%3A%2F%2Ffonts.googleapis.com%2Fcss%3Ffamily%3DMina;" vertex="1" parent="1">
          <mxGeometry x="311.39" y="1375.45" width="400" height="36.82" as="geometry" />
        </mxCell>
        <mxCell id="TdMQFVT1TNhZnt9DcQD6-203" value="&lt;div&gt;&lt;font&gt;Speaker-dependent to speaker-independent&lt;/font&gt;&lt;/div&gt;" style="rounded=0;whiteSpace=wrap;html=1;strokeWidth=2;fillColor=#cdeb8b;strokeColor=#36393d;container=0;fontSize=20;fontStyle=1;align=left;spacingLeft=3;fontFamily=Mina;fontSource=https%3A%2F%2Ffonts.googleapis.com%2Fcss%3Ffamily%3DMina;" vertex="1" parent="1">
          <mxGeometry x="311.39" y="1412.27" width="400" height="36.82" as="geometry" />
        </mxCell>
        <mxCell id="TdMQFVT1TNhZnt9DcQD6-204" value="&lt;div&gt;&lt;font&gt;Small (`&amp;lt; 20` words) to large words)&lt;/font&gt;&lt;/div&gt;" style="rounded=0;whiteSpace=wrap;html=1;strokeWidth=2;fillColor=#cdeb8b;strokeColor=#36393d;container=0;fontSize=20;fontStyle=1;align=left;spacingLeft=3;fontFamily=Mina;fontSource=https%3A%2F%2Ffonts.googleapis.com%2Fcss%3Ffamily%3DMina;" vertex="1" parent="1">
          <mxGeometry x="311.39" y="1449.0900000000001" width="400" height="36.82" as="geometry" />
        </mxCell>
        <mxCell id="TdMQFVT1TNhZnt9DcQD6-205" value="&lt;div&gt;&lt;font&gt;Finite-state to context-sensitive&lt;/font&gt;&lt;/div&gt;" style="rounded=0;whiteSpace=wrap;html=1;strokeWidth=2;fillColor=#cdeb8b;strokeColor=#36393d;container=0;fontSize=20;fontStyle=1;align=left;spacingLeft=3;fontFamily=Mina;fontSource=https%3A%2F%2Ffonts.googleapis.com%2Fcss%3Ffamily%3DMina;" vertex="1" parent="1">
          <mxGeometry x="311.39" y="1485.9099999999999" width="400" height="36.82" as="geometry" />
        </mxCell>
        <mxCell id="TdMQFVT1TNhZnt9DcQD6-206" value="&lt;div&gt;&lt;font&gt;Small to lar `e &amp;lt; 200`&lt;/font&gt;&lt;/div&gt;" style="rounded=0;whiteSpace=wrap;html=1;strokeWidth=2;fillColor=#cdeb8b;strokeColor=#36393d;container=0;fontSize=20;fontStyle=1;align=left;spacingLeft=3;fontFamily=Mina;fontSource=https%3A%2F%2Ffonts.googleapis.com%2Fcss%3Ffamily%3DMina;" vertex="1" parent="1">
          <mxGeometry x="311.39" y="1522.72" width="400" height="36.82" as="geometry" />
        </mxCell>
        <mxCell id="TdMQFVT1TNhZnt9DcQD6-207" value="&lt;div&gt;&lt;font&gt;Hi h `&amp;gt; 30` dB to low `&amp;lt; 10` dB&lt;/font&gt;&lt;/div&gt;" style="rounded=0;whiteSpace=wrap;html=1;strokeWidth=2;fillColor=#cdeb8b;strokeColor=#36393d;container=0;fontSize=20;fontStyle=1;align=left;spacingLeft=3;fontFamily=Mina;fontSource=https%3A%2F%2Ffonts.googleapis.com%2Fcss%3Ffamily%3DMina;" vertex="1" parent="1">
          <mxGeometry x="311.39" y="1559.54" width="400" height="36.82" as="geometry" />
        </mxCell>
        <mxCell id="TdMQFVT1TNhZnt9DcQD6-208" value="&lt;font&gt;Noise-cancelling microphone to cell phone&lt;/font&gt;" style="rounded=0;whiteSpace=wrap;html=1;strokeWidth=2;fillColor=#cdeb8b;strokeColor=#36393d;container=0;fontSize=20;fontStyle=1;align=left;spacingLeft=3;fontFamily=Mina;fontSource=https%3A%2F%2Ffonts.googleapis.com%2Fcss%3Ffamily%3DMina;" vertex="1" parent="1">
          <mxGeometry x="311.39" y="1596.3600000000001" width="400" height="36.82" as="geometry" />
        </mxCell>
        <mxCell id="TdMQFVT1TNhZnt9DcQD6-209" value="" style="group;fontFamily=Mina;fontSource=https%3A%2F%2Ffonts.googleapis.com%2Fcss%3Ffamily%3DMina;" vertex="1" connectable="0" parent="1">
          <mxGeometry x="20" y="1210" width="790" height="40" as="geometry" />
        </mxCell>
        <mxCell id="TdMQFVT1TNhZnt9DcQD6-210" value="Explain the Parameters that Characterize the Capabilities of ASR Systems" style="rounded=1;whiteSpace=wrap;html=1;fontSize=22;fillColor=#ffcc99;strokeColor=#000000;strokeWidth=2;fontFamily=Mina;arcSize=0;hachureGap=4;align=right;spacingRight=5;fontStyle=1;fontSource=https%3A%2F%2Ffonts.googleapis.com%2Fcss%3Ffamily%3DMina;" vertex="1" parent="TdMQFVT1TNhZnt9DcQD6-209">
          <mxGeometry x="25.07936507936508" width="764.9206349206352" height="40" as="geometry" />
        </mxCell>
        <mxCell id="TdMQFVT1TNhZnt9DcQD6-211" value="6" style="ellipse;whiteSpace=wrap;html=1;aspect=fixed;strokeWidth=2;fillColor=#a0522d;strokeColor=#000000;fontFamily=Mina;fontStyle=1;fontSize=20;spacingTop=3;fontColor=#ffffff;fontSource=https%3A%2F%2Ffonts.googleapis.com%2Fcss%3Ffamily%3DMina;" vertex="1" parent="TdMQFVT1TNhZnt9DcQD6-209">
          <mxGeometry width="40" height="40" as="geometry" />
        </mxCell>
        <mxCell id="TdMQFVT1TNhZnt9DcQD6-212" value="" style="group;fontFamily=Mina;fontSource=https%3A%2F%2Ffonts.googleapis.com%2Fcss%3Ffamily%3DMina;" vertex="1" connectable="0" parent="1">
          <mxGeometry x="29" y="3130" width="770" height="80" as="geometry" />
        </mxCell>
        <mxCell id="TdMQFVT1TNhZnt9DcQD6-185" value="&lt;b style=&quot;font-size: 15px;&quot;&gt;How to perform computations of `3` formants of schwa assuming,&amp;nbsp;Let the length of the tube be `L = 17.5` cm&amp;nbsp;&lt;/b&gt;" style="rounded=1;whiteSpace=wrap;html=1;hachureGap=4;fontFamily=Mina;strokeWidth=2;fillColor=#f5f5f5;strokeColor=#000000;fontSize=15;fontStyle=1;labelBorderColor=none;textShadow=0;labelBackgroundColor=none;align=left;spacing=7;verticalAlign=middle;fontColor=#333333;fontSource=https%3A%2F%2Ffonts.googleapis.com%2Fcss%3Ffamily%3DMina;" vertex="1" parent="TdMQFVT1TNhZnt9DcQD6-212">
          <mxGeometry y="40" width="770" height="40" as="geometry" />
        </mxCell>
        <mxCell id="TdMQFVT1TNhZnt9DcQD6-186" value="Problem" style="rounded=1;whiteSpace=wrap;html=1;hachureGap=4;fontFamily=Mina;strokeWidth=2;fillColor=#333333;strokeColor=#000000;fontSize=22;fontStyle=1;labelBorderColor=none;textShadow=0;labelBackgroundColor=none;align=center;spacing=5;verticalAlign=middle;spacingTop=0;spacingRight=2;fontColor=#ffffff;container=0;fontSource=https%3A%2F%2Ffonts.googleapis.com%2Fcss%3Ffamily%3DMina;" vertex="1" parent="TdMQFVT1TNhZnt9DcQD6-212">
          <mxGeometry x="20" width="170" height="40" as="geometry" />
        </mxCell>
        <mxCell id="TdMQFVT1TNhZnt9DcQD6-213" value="" style="group;fontFamily=Mina;fontSource=https%3A%2F%2Ffonts.googleapis.com%2Fcss%3Ffamily%3DMina;" vertex="1" connectable="0" parent="1">
          <mxGeometry x="344" y="3600" width="140" height="412" as="geometry" />
        </mxCell>
        <mxCell id="TdMQFVT1TNhZnt9DcQD6-60" style="edgeStyle=orthogonalEdgeStyle;rounded=0;orthogonalLoop=1;jettySize=auto;html=1;fontFamily=Mina;fontSource=https%3A%2F%2Ffonts.googleapis.com%2Fcss%3Ffamily%3DMina;" edge="1" parent="TdMQFVT1TNhZnt9DcQD6-213" source="TdMQFVT1TNhZnt9DcQD6-61">
          <mxGeometry relative="1" as="geometry">
            <mxPoint x="70" y="32" as="targetPoint" />
          </mxGeometry>
        </mxCell>
        <mxCell id="TdMQFVT1TNhZnt9DcQD6-61" value="Post Processing" style="rounded=1;whiteSpace=wrap;html=1;strokeWidth=2;fillColor=#D5E8D4;strokeColor=#36393d;arcSize=50;fontFamily=Mina;fontStyle=1;fontSize=14;fontSource=https%3A%2F%2Ffonts.googleapis.com%2Fcss%3Ffamily%3DMina;" vertex="1" parent="TdMQFVT1TNhZnt9DcQD6-213">
          <mxGeometry y="52" width="140" height="38.34" as="geometry" />
        </mxCell>
        <mxCell id="TdMQFVT1TNhZnt9DcQD6-62" style="edgeStyle=orthogonalEdgeStyle;rounded=0;orthogonalLoop=1;jettySize=auto;html=1;fontFamily=Mina;fontSource=https%3A%2F%2Ffonts.googleapis.com%2Fcss%3Ffamily%3DMina;" edge="1" parent="TdMQFVT1TNhZnt9DcQD6-213" source="TdMQFVT1TNhZnt9DcQD6-63" target="TdMQFVT1TNhZnt9DcQD6-61">
          <mxGeometry relative="1" as="geometry" />
        </mxCell>
        <mxCell id="TdMQFVT1TNhZnt9DcQD6-63" value="&lt;div&gt;Classification Rule&lt;/div&gt;" style="rounded=1;whiteSpace=wrap;html=1;strokeWidth=2;fillColor=#D5E8D4;strokeColor=#36393d;arcSize=50;fontFamily=Mina;fontStyle=1;fontSize=14;fontSource=https%3A%2F%2Ffonts.googleapis.com%2Fcss%3Ffamily%3DMina;" vertex="1" parent="TdMQFVT1TNhZnt9DcQD6-213">
          <mxGeometry y="122" width="140" height="38.34" as="geometry" />
        </mxCell>
        <mxCell id="TdMQFVT1TNhZnt9DcQD6-64" style="edgeStyle=orthogonalEdgeStyle;rounded=0;orthogonalLoop=1;jettySize=auto;html=1;fontFamily=Mina;fontSource=https%3A%2F%2Ffonts.googleapis.com%2Fcss%3Ffamily%3DMina;" edge="1" parent="TdMQFVT1TNhZnt9DcQD6-213" source="TdMQFVT1TNhZnt9DcQD6-65" target="TdMQFVT1TNhZnt9DcQD6-63">
          <mxGeometry relative="1" as="geometry" />
        </mxCell>
        <mxCell id="TdMQFVT1TNhZnt9DcQD6-65" value="&lt;div style=&quot;font-size: 13px;&quot;&gt;Feature extraction&lt;/div&gt;&lt;div style=&quot;font-size: 13px;&quot;&gt;or Selection&lt;/div&gt;" style="rounded=1;whiteSpace=wrap;html=1;strokeWidth=2;fillColor=#D5E8D4;strokeColor=#36393d;arcSize=50;fontFamily=Mina;fontStyle=1;fontSize=13;fontSource=https%3A%2F%2Ffonts.googleapis.com%2Fcss%3Ffamily%3DMina;" vertex="1" parent="TdMQFVT1TNhZnt9DcQD6-213">
          <mxGeometry y="192" width="140" height="38.34" as="geometry" />
        </mxCell>
        <mxCell id="TdMQFVT1TNhZnt9DcQD6-66" style="edgeStyle=orthogonalEdgeStyle;rounded=0;orthogonalLoop=1;jettySize=auto;html=1;fontFamily=Mina;fontSource=https%3A%2F%2Ffonts.googleapis.com%2Fcss%3Ffamily%3DMina;" edge="1" parent="TdMQFVT1TNhZnt9DcQD6-213" source="TdMQFVT1TNhZnt9DcQD6-67" target="TdMQFVT1TNhZnt9DcQD6-65">
          <mxGeometry relative="1" as="geometry" />
        </mxCell>
        <mxCell id="TdMQFVT1TNhZnt9DcQD6-67" value="&lt;div&gt;&lt;span style=&quot;background-color: initial;&quot;&gt;Segmentation&lt;/span&gt;&lt;/div&gt;" style="rounded=1;whiteSpace=wrap;html=1;strokeWidth=2;fillColor=#D5E8D4;strokeColor=#36393d;arcSize=50;fontFamily=Mina;fontStyle=1;fontSize=14;fontSource=https%3A%2F%2Ffonts.googleapis.com%2Fcss%3Ffamily%3DMina;" vertex="1" parent="TdMQFVT1TNhZnt9DcQD6-213">
          <mxGeometry y="262" width="140" height="38.34" as="geometry" />
        </mxCell>
        <mxCell id="TdMQFVT1TNhZnt9DcQD6-68" style="edgeStyle=orthogonalEdgeStyle;rounded=0;orthogonalLoop=1;jettySize=auto;html=1;fontFamily=Mina;fontSource=https%3A%2F%2Ffonts.googleapis.com%2Fcss%3Ffamily%3DMina;" edge="1" parent="TdMQFVT1TNhZnt9DcQD6-213" source="TdMQFVT1TNhZnt9DcQD6-71" target="TdMQFVT1TNhZnt9DcQD6-67">
          <mxGeometry relative="1" as="geometry" />
        </mxCell>
        <mxCell id="TdMQFVT1TNhZnt9DcQD6-69" style="edgeStyle=orthogonalEdgeStyle;rounded=0;orthogonalLoop=1;jettySize=auto;html=1;endArrow=none;endFill=0;startArrow=classic;startFill=1;fontFamily=Mina;fontSource=https%3A%2F%2Ffonts.googleapis.com%2Fcss%3Ffamily%3DMina;" edge="1" parent="TdMQFVT1TNhZnt9DcQD6-213" source="TdMQFVT1TNhZnt9DcQD6-71">
          <mxGeometry relative="1" as="geometry">
            <mxPoint x="70" y="412" as="targetPoint" />
          </mxGeometry>
        </mxCell>
        <mxCell id="TdMQFVT1TNhZnt9DcQD6-70" value="&lt;font style=&quot;font-size: 18px;&quot;&gt;&lt;b&gt;Input&lt;/b&gt;&lt;/font&gt;" style="edgeLabel;html=1;align=center;verticalAlign=middle;resizable=0;points=[];fontFamily=Mina;fontSource=https%3A%2F%2Ffonts.googleapis.com%2Fcss%3Ffamily%3DMina;" vertex="1" connectable="0" parent="TdMQFVT1TNhZnt9DcQD6-69">
          <mxGeometry x="1" y="-1" relative="1" as="geometry">
            <mxPoint x="1" y="1" as="offset" />
          </mxGeometry>
        </mxCell>
        <mxCell id="TdMQFVT1TNhZnt9DcQD6-71" value="Sensor" style="rounded=1;whiteSpace=wrap;html=1;strokeWidth=2;fillColor=#D5E8D4;strokeColor=#36393d;arcSize=50;fontFamily=Mina;fontStyle=1;fontSize=14;fontSource=https%3A%2F%2Ffonts.googleapis.com%2Fcss%3Ffamily%3DMina;" vertex="1" parent="TdMQFVT1TNhZnt9DcQD6-213">
          <mxGeometry y="332" width="140" height="38.34" as="geometry" />
        </mxCell>
        <mxCell id="TdMQFVT1TNhZnt9DcQD6-72" value="Decision" style="text;html=1;align=center;verticalAlign=middle;resizable=0;points=[];autosize=1;strokeColor=none;fillColor=none;fontSize=16;fontStyle=1;fontFamily=Mina;fontSource=https%3A%2F%2Ffonts.googleapis.com%2Fcss%3Ffamily%3DMina;" vertex="1" parent="TdMQFVT1TNhZnt9DcQD6-213">
          <mxGeometry x="30" width="80" height="30" as="geometry" />
        </mxCell>
        <mxCell id="TdMQFVT1TNhZnt9DcQD6-214" value="" style="group;fontFamily=Mina;fontSource=https%3A%2F%2Ffonts.googleapis.com%2Fcss%3Ffamily%3DMina;" vertex="1" connectable="0" parent="1">
          <mxGeometry x="60" y="4340" width="153" height="240" as="geometry" />
        </mxCell>
        <mxCell id="TdMQFVT1TNhZnt9DcQD6-93" value="&lt;div style=&quot;border-color: var(--border-color);&quot;&gt;Data Collection&lt;/div&gt;" style="rounded=1;whiteSpace=wrap;html=1;hachureGap=4;fontFamily=Mina;strokeWidth=2;fillColor=#cdeb8b;strokeColor=#000000;fontSize=16;fontStyle=1;labelBorderColor=none;textShadow=0;labelBackgroundColor=none;align=left;spacing=7;verticalAlign=middle;fontSource=https%3A%2F%2Ffonts.googleapis.com%2Fcss%3Ffamily%3DMina;" vertex="1" parent="TdMQFVT1TNhZnt9DcQD6-214">
          <mxGeometry y="40" width="150" height="40" as="geometry" />
        </mxCell>
        <mxCell id="TdMQFVT1TNhZnt9DcQD6-94" value="&lt;b&gt;Activities&amp;nbsp;&lt;/b&gt;" style="rounded=1;whiteSpace=wrap;html=1;hachureGap=4;fontFamily=Mina;strokeWidth=2;fillColor=#008a00;strokeColor=#000000;fontSize=22;fontStyle=1;labelBorderColor=none;textShadow=0;labelBackgroundColor=none;align=center;spacing=5;verticalAlign=middle;spacingTop=0;spacingRight=2;fontColor=#ffffff;container=0;fontSource=https%3A%2F%2Ffonts.googleapis.com%2Fcss%3Ffamily%3DMina;" vertex="1" parent="TdMQFVT1TNhZnt9DcQD6-214">
          <mxGeometry x="18.119999999999997" width="120" height="40" as="geometry" />
        </mxCell>
        <mxCell id="TdMQFVT1TNhZnt9DcQD6-95" value="&lt;div style=&quot;border-color: var(--border-color);&quot;&gt;Feature Choice&lt;/div&gt;" style="rounded=1;whiteSpace=wrap;html=1;hachureGap=4;fontFamily=Mina;strokeWidth=2;fillColor=#cdeb8b;strokeColor=#000000;fontSize=16;fontStyle=1;labelBorderColor=none;textShadow=0;labelBackgroundColor=none;align=left;spacing=7;verticalAlign=middle;fontSource=https%3A%2F%2Ffonts.googleapis.com%2Fcss%3Ffamily%3DMina;" vertex="1" parent="TdMQFVT1TNhZnt9DcQD6-214">
          <mxGeometry y="80" width="153" height="40" as="geometry" />
        </mxCell>
        <mxCell id="TdMQFVT1TNhZnt9DcQD6-96" value="&lt;div style=&quot;border-color: var(--border-color);&quot;&gt;Model Choice&lt;/div&gt;" style="rounded=1;whiteSpace=wrap;html=1;hachureGap=4;fontFamily=Mina;strokeWidth=2;fillColor=#cdeb8b;strokeColor=#000000;fontSize=16;fontStyle=1;labelBorderColor=none;textShadow=0;labelBackgroundColor=none;align=left;spacing=7;verticalAlign=middle;fontSource=https%3A%2F%2Ffonts.googleapis.com%2Fcss%3Ffamily%3DMina;" vertex="1" parent="TdMQFVT1TNhZnt9DcQD6-214">
          <mxGeometry y="120" width="153" height="40" as="geometry" />
        </mxCell>
        <mxCell id="TdMQFVT1TNhZnt9DcQD6-97" value="&lt;div style=&quot;border-color: var(--border-color);&quot;&gt;&lt;div style=&quot;border-color: var(--border-color);&quot;&gt;Training&lt;/div&gt;&lt;/div&gt;" style="rounded=1;whiteSpace=wrap;html=1;hachureGap=4;fontFamily=Mina;strokeWidth=2;fillColor=#cdeb8b;strokeColor=#000000;fontSize=16;fontStyle=1;labelBorderColor=none;textShadow=0;labelBackgroundColor=none;align=left;spacing=7;verticalAlign=middle;fontSource=https%3A%2F%2Ffonts.googleapis.com%2Fcss%3Ffamily%3DMina;" vertex="1" parent="TdMQFVT1TNhZnt9DcQD6-214">
          <mxGeometry y="160" width="153" height="40" as="geometry" />
        </mxCell>
        <mxCell id="TdMQFVT1TNhZnt9DcQD6-98" value="&lt;div style=&quot;border-color: var(--border-color);&quot;&gt;&lt;div style=&quot;border-color: var(--border-color);&quot;&gt;Evaluation&lt;br&gt;&lt;/div&gt;&lt;/div&gt;" style="rounded=1;whiteSpace=wrap;html=1;hachureGap=4;fontFamily=Mina;strokeWidth=2;fillColor=#cdeb8b;strokeColor=#000000;fontSize=16;fontStyle=1;labelBorderColor=none;textShadow=0;labelBackgroundColor=none;align=left;spacing=7;verticalAlign=middle;fontSource=https%3A%2F%2Ffonts.googleapis.com%2Fcss%3Ffamily%3DMina;" vertex="1" parent="TdMQFVT1TNhZnt9DcQD6-214">
          <mxGeometry y="200" width="153" height="40" as="geometry" />
        </mxCell>
        <mxCell id="TdMQFVT1TNhZnt9DcQD6-215" value="" style="group;fontFamily=Mina;fontSource=https%3A%2F%2Ffonts.googleapis.com%2Fcss%3Ffamily%3DMina;" vertex="1" connectable="0" parent="1">
          <mxGeometry x="140" y="4150" width="660" height="220" as="geometry" />
        </mxCell>
        <mxCell id="TdMQFVT1TNhZnt9DcQD6-76" style="edgeStyle=orthogonalEdgeStyle;rounded=1;orthogonalLoop=1;jettySize=auto;html=1;curved=0;strokeWidth=2;fontFamily=Mina;fontSource=https%3A%2F%2Ffonts.googleapis.com%2Fcss%3Ffamily%3DMina;" edge="1" parent="TdMQFVT1TNhZnt9DcQD6-215" source="TdMQFVT1TNhZnt9DcQD6-78" target="TdMQFVT1TNhZnt9DcQD6-80">
          <mxGeometry relative="1" as="geometry" />
        </mxCell>
        <mxCell id="TdMQFVT1TNhZnt9DcQD6-77" style="edgeStyle=orthogonalEdgeStyle;rounded=1;orthogonalLoop=1;jettySize=auto;html=1;endArrow=none;endFill=0;startArrow=classic;startFill=1;curved=0;strokeWidth=2;fontFamily=Mina;fontSource=https%3A%2F%2Ffonts.googleapis.com%2Fcss%3Ffamily%3DMina;" edge="1" parent="TdMQFVT1TNhZnt9DcQD6-215" source="TdMQFVT1TNhZnt9DcQD6-78">
          <mxGeometry relative="1" as="geometry">
            <mxPoint x="50" y="59.17000000000007" as="targetPoint" />
          </mxGeometry>
        </mxCell>
        <mxCell id="TdMQFVT1TNhZnt9DcQD6-78" value="&lt;div&gt;Data&lt;/div&gt;&lt;div&gt;Collection&lt;/div&gt;" style="rounded=1;whiteSpace=wrap;html=1;strokeWidth=2;fillColor=#D5E8D4;strokeColor=#36393d;arcSize=50;fontFamily=Mina;fontStyle=1;fontSize=14;fontSource=https%3A%2F%2Ffonts.googleapis.com%2Fcss%3Ffamily%3DMina;" vertex="1" parent="TdMQFVT1TNhZnt9DcQD6-215">
          <mxGeometry x="108" y="40" width="110" height="38.34" as="geometry" />
        </mxCell>
        <mxCell id="TdMQFVT1TNhZnt9DcQD6-79" style="edgeStyle=orthogonalEdgeStyle;rounded=1;orthogonalLoop=1;jettySize=auto;html=1;curved=0;strokeWidth=2;fontFamily=Mina;fontSource=https%3A%2F%2Ffonts.googleapis.com%2Fcss%3Ffamily%3DMina;" edge="1" parent="TdMQFVT1TNhZnt9DcQD6-215" source="TdMQFVT1TNhZnt9DcQD6-80" target="TdMQFVT1TNhZnt9DcQD6-82">
          <mxGeometry relative="1" as="geometry" />
        </mxCell>
        <mxCell id="TdMQFVT1TNhZnt9DcQD6-80" value="&lt;div&gt;Feature&lt;/div&gt;&lt;div&gt;Choice&lt;/div&gt;" style="rounded=1;whiteSpace=wrap;html=1;strokeWidth=2;fillColor=#D5E8D4;strokeColor=#36393d;arcSize=50;fontFamily=Mina;fontStyle=1;fontSize=14;fontSource=https%3A%2F%2Ffonts.googleapis.com%2Fcss%3Ffamily%3DMina;" vertex="1" parent="TdMQFVT1TNhZnt9DcQD6-215">
          <mxGeometry x="325" y="40" width="110" height="38.34" as="geometry" />
        </mxCell>
        <mxCell id="TdMQFVT1TNhZnt9DcQD6-81" style="edgeStyle=orthogonalEdgeStyle;rounded=1;orthogonalLoop=1;jettySize=auto;html=1;curved=0;strokeWidth=2;fontFamily=Mina;fontSource=https%3A%2F%2Ffonts.googleapis.com%2Fcss%3Ffamily%3DMina;" edge="1" parent="TdMQFVT1TNhZnt9DcQD6-215" source="TdMQFVT1TNhZnt9DcQD6-82" target="TdMQFVT1TNhZnt9DcQD6-84">
          <mxGeometry relative="1" as="geometry" />
        </mxCell>
        <mxCell id="TdMQFVT1TNhZnt9DcQD6-82" value="&lt;div&gt;Model&lt;/div&gt;&lt;div&gt;Choice&lt;/div&gt;" style="rounded=1;whiteSpace=wrap;html=1;strokeWidth=2;fillColor=#D5E8D4;strokeColor=#36393d;arcSize=50;fontFamily=Mina;fontStyle=1;fontSize=14;fontSource=https%3A%2F%2Ffonts.googleapis.com%2Fcss%3Ffamily%3DMina;" vertex="1" parent="TdMQFVT1TNhZnt9DcQD6-215">
          <mxGeometry x="508" y="40" width="114.5" height="38.34" as="geometry" />
        </mxCell>
        <mxCell id="TdMQFVT1TNhZnt9DcQD6-83" style="edgeStyle=orthogonalEdgeStyle;rounded=1;orthogonalLoop=1;jettySize=auto;html=1;curved=0;strokeWidth=2;fontFamily=Mina;fontSource=https%3A%2F%2Ffonts.googleapis.com%2Fcss%3Ffamily%3DMina;" edge="1" parent="TdMQFVT1TNhZnt9DcQD6-215" source="TdMQFVT1TNhZnt9DcQD6-84" target="TdMQFVT1TNhZnt9DcQD6-91">
          <mxGeometry relative="1" as="geometry" />
        </mxCell>
        <mxCell id="TdMQFVT1TNhZnt9DcQD6-84" value="&lt;div&gt;Training the&lt;/div&gt;&lt;div&gt;Classifier&lt;/div&gt;" style="rounded=1;whiteSpace=wrap;html=1;strokeWidth=2;fillColor=#D5E8D4;strokeColor=#36393d;arcSize=50;fontFamily=Mina;fontStyle=1;fontSize=14;fontSource=https%3A%2F%2Ffonts.googleapis.com%2Fcss%3Ffamily%3DMina;" vertex="1" parent="TdMQFVT1TNhZnt9DcQD6-215">
          <mxGeometry x="508" y="134.17000000000007" width="114.5" height="38.34" as="geometry" />
        </mxCell>
        <mxCell id="TdMQFVT1TNhZnt9DcQD6-85" style="edgeStyle=orthogonalEdgeStyle;rounded=1;orthogonalLoop=1;jettySize=auto;html=1;curved=0;strokeWidth=2;fontFamily=Mina;fontSource=https%3A%2F%2Ffonts.googleapis.com%2Fcss%3Ffamily%3DMina;" edge="1" parent="TdMQFVT1TNhZnt9DcQD6-215" source="TdMQFVT1TNhZnt9DcQD6-91">
          <mxGeometry relative="1" as="geometry">
            <mxPoint x="270" y="153.34000000000015" as="targetPoint" />
          </mxGeometry>
        </mxCell>
        <mxCell id="TdMQFVT1TNhZnt9DcQD6-86" value="Termination" style="edgeLabel;html=1;align=center;verticalAlign=middle;resizable=0;points=[];fontSize=16;fontStyle=1;fontFamily=Mina;fontSource=https%3A%2F%2Ffonts.googleapis.com%2Fcss%3Ffamily%3DMina;" vertex="1" connectable="0" parent="TdMQFVT1TNhZnt9DcQD6-85">
          <mxGeometry x="1" y="-4" relative="1" as="geometry">
            <mxPoint x="-50" y="4" as="offset" />
          </mxGeometry>
        </mxCell>
        <mxCell id="TdMQFVT1TNhZnt9DcQD6-87" style="edgeStyle=orthogonalEdgeStyle;rounded=1;orthogonalLoop=1;jettySize=auto;html=1;curved=0;strokeWidth=2;fontFamily=Mina;fontSource=https%3A%2F%2Ffonts.googleapis.com%2Fcss%3Ffamily%3DMina;" edge="1" parent="TdMQFVT1TNhZnt9DcQD6-215" source="TdMQFVT1TNhZnt9DcQD6-91" target="TdMQFVT1TNhZnt9DcQD6-84">
          <mxGeometry relative="1" as="geometry">
            <Array as="points">
              <mxPoint x="380" y="220" />
              <mxPoint x="565" y="220" />
            </Array>
          </mxGeometry>
        </mxCell>
        <mxCell id="TdMQFVT1TNhZnt9DcQD6-88" style="edgeStyle=orthogonalEdgeStyle;rounded=1;orthogonalLoop=1;jettySize=auto;html=1;curved=0;strokeWidth=2;fontFamily=Mina;fontSource=https%3A%2F%2Ffonts.googleapis.com%2Fcss%3Ffamily%3DMina;" edge="1" parent="TdMQFVT1TNhZnt9DcQD6-215" source="TdMQFVT1TNhZnt9DcQD6-91" target="TdMQFVT1TNhZnt9DcQD6-82">
          <mxGeometry relative="1" as="geometry">
            <Array as="points">
              <mxPoint x="380" y="220" />
              <mxPoint x="660" y="220" />
              <mxPoint x="660" />
              <mxPoint x="565" />
            </Array>
          </mxGeometry>
        </mxCell>
        <mxCell id="TdMQFVT1TNhZnt9DcQD6-89" style="edgeStyle=orthogonalEdgeStyle;rounded=1;orthogonalLoop=1;jettySize=auto;html=1;curved=0;strokeWidth=2;fontFamily=Mina;fontSource=https%3A%2F%2Ffonts.googleapis.com%2Fcss%3Ffamily%3DMina;" edge="1" parent="TdMQFVT1TNhZnt9DcQD6-215" source="TdMQFVT1TNhZnt9DcQD6-91" target="TdMQFVT1TNhZnt9DcQD6-80">
          <mxGeometry relative="1" as="geometry">
            <Array as="points">
              <mxPoint x="380" y="220" />
              <mxPoint x="660" y="220" />
              <mxPoint x="660" />
              <mxPoint x="380" />
            </Array>
          </mxGeometry>
        </mxCell>
        <mxCell id="TdMQFVT1TNhZnt9DcQD6-90" style="edgeStyle=orthogonalEdgeStyle;rounded=1;orthogonalLoop=1;jettySize=auto;html=1;curved=0;strokeWidth=2;fontFamily=Mina;fontSource=https%3A%2F%2Ffonts.googleapis.com%2Fcss%3Ffamily%3DMina;" edge="1" parent="TdMQFVT1TNhZnt9DcQD6-215" source="TdMQFVT1TNhZnt9DcQD6-91" target="TdMQFVT1TNhZnt9DcQD6-78">
          <mxGeometry relative="1" as="geometry">
            <Array as="points">
              <mxPoint x="380" y="220" />
              <mxPoint x="660" y="220" />
              <mxPoint x="660" />
              <mxPoint x="163" />
            </Array>
          </mxGeometry>
        </mxCell>
        <mxCell id="TdMQFVT1TNhZnt9DcQD6-91" value="&lt;div&gt;Evaluation&lt;/div&gt;&lt;div&gt;Classifier&lt;/div&gt;" style="rounded=1;whiteSpace=wrap;html=1;strokeWidth=2;fillColor=#D5E8D4;strokeColor=#36393d;arcSize=50;fontFamily=Mina;fontStyle=1;fontSize=14;fontSource=https%3A%2F%2Ffonts.googleapis.com%2Fcss%3Ffamily%3DMina;" vertex="1" parent="TdMQFVT1TNhZnt9DcQD6-215">
          <mxGeometry x="325" y="134.17000000000007" width="110" height="38.34" as="geometry" />
        </mxCell>
        <mxCell id="TdMQFVT1TNhZnt9DcQD6-92" value="&lt;font style=&quot;font-size: 18px;&quot;&gt;&lt;b&gt;Start&lt;/b&gt;&lt;/font&gt;" style="text;html=1;align=center;verticalAlign=middle;resizable=0;points=[];autosize=1;strokeColor=none;fillColor=none;fontFamily=Mina;fontSource=https%3A%2F%2Ffonts.googleapis.com%2Fcss%3Ffamily%3DMina;" vertex="1" parent="TdMQFVT1TNhZnt9DcQD6-215">
          <mxGeometry y="38.340000000000146" width="60" height="40" as="geometry" />
        </mxCell>
        <mxCell id="TdMQFVT1TNhZnt9DcQD6-216" value="" style="triangle;whiteSpace=wrap;html=1;dashed=0;direction=south;fillColor=#e51400;fontColor=#ffffff;strokeColor=#000000;strokeWidth=2;fontFamily=Mina;fontSource=https%3A%2F%2Ffonts.googleapis.com%2Fcss%3Ffamily%3DMina;verticalAlign=top;spacingTop=5;fontStyle=1;fontSize=16;" vertex="1" parent="1">
          <mxGeometry x="723" y="25" width="87" height="68.13" as="geometry" />
        </mxCell>
      </root>
    </mxGraphModel>
  </diagram>
</mxfile>
